<?xml version="1.0" encoding="UTF-8"?>
<svg id="Layer_2" data-name="Layer 2" xmlns="http://www.w3.org/2000/svg" viewBox="0 0 247.66 331">
  <defs>
    <style>
      .cls-1, .cls-2, .cls-3, .cls-4, .cls-5, .cls-6, .cls-7, .cls-8, .cls-9, .cls-10, .cls-11, .cls-12, .cls-13, .cls-14, .cls-15 {
        stroke-width: 0px;
      }

      .cls-1, .cls-2, .cls-4, .cls-6, .cls-12, .cls-13, .cls-14 {
        isolation: isolate;
      }

      .cls-1, .cls-6 {
        opacity: .3;
      }

      .cls-1, .cls-10, .cls-13 {
        fill: #263238;
      }

      .cls-16 {
        opacity: .5;
      }

      .cls-2 {
        opacity: .7;
      }

      .cls-2, .cls-8 {
        fill: #fff;
      }

      .cls-4, .cls-17, .cls-13 {
        opacity: .2;
      }

      .cls-5 {
        fill: #262161;
      }

      .cls-6, .cls-9, .cls-14 {
        fill: #1b75bc;
      }

      .cls-7 {
        fill: #a02724;
      }

      .cls-11 {
        fill: #28377c;
      }

      .cls-12 {
        opacity: .4;
      }

      .cls-14 {
        opacity: .05;
      }

      .cls-15 {
        fill: #b55b52;
      }
    </style>
  </defs>
  <g id="Layer_1-2" data-name="Layer 1">
    <rect class="cls-9" x="50.98" width="155.9" height="325.33" rx="15.79" ry="15.79"/>
    <rect class="cls-9" x="200.81" y="55.49" width="8.04" height="55.04" rx="3.31" ry="3.31"/>
    <rect class="cls-9" x="46.06" y="66.28" width="8.04" height="21.58" rx="2.8" ry="2.8"/>
    <rect class="cls-9" x="48.35" width="155.9" height="325.33" rx="15.79" ry="15.79"/>
    <rect class="cls-8" x="49.82" y="18.52" width="152.95" height="288.82" rx="3.07" ry="3.07"/>
    <rect class="cls-14" x="60.68" y="32.73" width="122.81" height="164.75" rx="15" ry="15"/>
    <path class="cls-14" d="m140.38,117.51c-5.57,0-10.08,4.51-10.08,10.08v90.59c0,5.57,4.5,10.08,10.07,10.09h62.42v-110.76h-62.41Z"/>
    <path class="cls-9" d="m240.45,54.91h-108.38c-3.98,0-7.21,3.23-7.21,7.21v27.83c0,3.98,3.23,7.21,7.21,7.21h13.34v7.35l14.46-7.38h80.58c3.98,0,7.21-3.23,7.21-7.21v-27.8c0-3.98-3.23-7.21-7.21-7.21Z"/>
    <path class="cls-2" d="m240.45,54.91h-108.38c-3.98,0-7.21,3.23-7.21,7.21v27.83c0,3.98,3.23,7.21,7.21,7.21h13.34v7.35l14.46-7.38h80.58c3.98,0,7.21-3.23,7.21-7.21v-27.8c0-3.98-3.23-7.21-7.21-7.21Z"/>
    <path class="cls-8" d="m210.27,73.12h-72.65c-2.28,0-4.13-1.84-4.13-4.13,0-2.28,1.84-4.13,4.13-4.13h72.66c2.28,0,4.13,1.85,4.13,4.13,0,2.28-1.85,4.12-4.13,4.13h0Zm-72.65-7.29c-1.75,0-3.16,1.41-3.16,3.16s1.41,3.16,3.16,3.16h72.65c1.75,0,3.16-1.41,3.16-3.16s-1.41-3.16-3.16-3.16h-72.65Z"/>
    <path class="cls-8" d="m187.66,87.13h-50c-2.24,0-4.05-1.81-4.05-4.05s1.81-4.05,4.05-4.05h50c2.24,0,4.05,1.81,4.05,4.05s-1.81,4.05-4.05,4.05Zm-50-7.29c-1.79,0-3.24,1.45-3.24,3.24,0,1.79,1.45,3.24,3.24,3.24h50.01c1.79,0,3.24-1.45,3.24-3.24,0-1.79-1.45-3.23-3.24-3.24h-50Z"/>
    <path class="cls-9" d="m32.74,248.61h170.05v17.76H32.79c-3.25,0-5.88-2.63-5.88-5.88h0v-6c0-3.23,2.6-5.85,5.83-5.88Z"/>
    <path class="cls-13" d="m32.74,248.61h170.05v17.76H32.79c-3.25,0-5.88-2.63-5.88-5.88h0v-6c0-3.23,2.6-5.85,5.83-5.88Z"/>
    <path class="cls-1" d="m164.34,248.61h38.45v17.76h-38.45c-3.25,0-5.88-2.63-5.88-5.88h0v-6c0-3.25,2.63-5.88,5.88-5.88h0Z"/>
    <path class="cls-6" d="m172.63,266.38l22.92,24.81c2.66,2.89,7.22.84,7.22-3.24v-21.57h-30.14Z"/>
    <path class="cls-6" d="m62.98,266.38l22.92,24.81c2.67,2.89,7.23.84,7.23-3.24v-21.57h-30.15Z"/>
    <path class="cls-15" d="m107.42,178.4c-.15,1.86-.37,3.58-.61,5.35s-.5,3.52-.81,5.27c-.6,3.51-1.32,7-2.2,10.48-.43,1.73-.89,3.47-1.42,5.2-.26.87-.53,1.73-.83,2.59-.27.92-.61,1.83-1,2.71-.24.49-.49,1-.82,1.53-.38.67-.84,1.29-1.36,1.86-.45.47-.96.88-1.52,1.2-.95.54-2.06.74-3.14.58-.9-.15-1.74-.55-2.42-1.16-.38-.36-.72-.76-1-1.2-.61-1.06-1.01-2.23-1.18-3.44-.14-.99-.21-2-.19-3l4.74-1c.42.64.81,1.39,1.26,2s.9,1.2,1.11,1.21c0,0,.05-.07-.09-.24-.34-.34-.78-.56-1.26-.62-.64-.11-1.31,0-1.89.29-.37.19-.5.31-.56.33s0-.12,0-.35l.19-.87c.12-.62.32-1.47.54-2.26s.39-1.61.58-2.42c.37-1.63.73-3.26,1-4.91.64-3.3,1.2-6.64,1.71-10s1-6.75,1.38-10l9.79.87Z"/>
    <path class="cls-9" d="m98.79,168.51c-2.27,3.38-4.55,16.48-4.55,16.48l15.94,7s4.48-21.33.91-25.24c-3.68-4.09-9.75-2.03-12.3,1.76Z"/>
    <path class="cls-4" d="m101.93,177.1c-2.17,2.5-3.18,6.47-3.48,9.68l11.77,5.2c.98-4.8,1.68-9.65,2.11-14.53-2.61-2.78-6.69-4.64-10.4-.35Z"/>
    <polygon class="cls-15" points="25.27 316.39 17.34 311.03 28.43 291.76 36.36 297.12 25.27 316.39"/>
    <polygon class="cls-15" points="77.7 324.47 68.52 321.2 71.73 299.22 80.91 302.49 77.7 324.47"/>
    <path class="cls-5" d="m68.01,319.92l10.75.45c.38,0,.7.3.74.68l.87,8.18c.06.85-.59,1.58-1.44,1.64-.05,0-.11,0-.16,0-3.75-.22-5.55-.14-10.27-.33-2.91-.13-8.82.6-12.83.43s-4.07-4.14-2.38-4.43c7.56-1.31,10.49-4.08,13.1-6.09.46-.36,1.03-.55,1.62-.53Z"/>
    <path class="cls-5" d="m18.42,308.17l8.86,6.1c.33.22.44.65.25,1l-3.81,7.7c-.4.75-1.33,1.03-2.07.63-.06-.03-.11-.06-.16-.1-3-2.18-4.1-3-8-5.68-2.39-1.65-8-5.05-11.32-7.33s-1.06-5.82.52-5.17c7.09,2.93,10.79,2.77,14.07,2.45.58-.06,1.17.08,1.66.4Z"/>
    <g class="cls-17">
      <polygon class="cls-3" points="28.42 291.76 21.9 303.11 30.32 307.62 36.36 297.13 28.42 291.76"/>
      <polygon class="cls-3" points="80.91 302.5 71.72 299.22 69.79 312.55 79.17 314.45 80.91 302.5"/>
    </g>
    <path class="cls-9" d="m99.09,172.85c.11,7.2,1.55,21.63,7,50.51l38.87-1c-1.06-15.8-1.33-25.56,5.4-58.22-5.47-.98-11.01-1.57-16.57-1.75-5.89-.27-11.79-.12-17.66.45-3.54.42-7.31,1.07-10.31,1.65-3.97.79-6.81,4.31-6.73,8.36Z"/>
    <path class="cls-4" d="m149.35,169.18c-3.41,1.49-6.17,4.16-7.76,7.53-1.88,4.29,2.83,13.11,3.95,15.09.76-6.1,1.98-13.36,3.81-22.62Z"/>
    <path class="cls-15" d="m131.6,144.69c-1,5.71-1.86,14,2.21,17.7,0,0-7.91,4.34-16.23,18.1-7.25-11.31-1.43-17.65-1.43-17.65,6.3-1.67,6.07-4.24,4.85-8.62l10.6-9.53Z"/>
    <path class="cls-4" d="m127.28,148.58l-6.27,5.63c.3,1.02.5,2.06.62,3.12,2.41-.41,6.17-2.57,6.62-5.21.21-1.25-.75-2.96-.97-3.54Z"/>
    <path class="cls-15" d="m132.62,129.92c1.56,9.37,2.43,13.3-1.15,19.12-5.38,8.76-17.23,8.62-21.56-.09-3.9-7.85-5.8-21.86,2.4-27.62,5.88-4.13,13.98-2.71,18.11,3.17,1.14,1.62,1.89,3.47,2.2,5.42Z"/>
    <path class="cls-11" d="m106.1,223.36c-18.9-1.26-57.76,3.53-63.76,22-9,27.82-19.5,51.57-19.5,51.57l12.14,5.81s23.35-28.34,30.53-46.81c14,1.56,32.56-2.8,38.15-3.49,20.52-2.51,28.93-15.79,30.9-29.82l-28.46.74Z"/>
    <path class="cls-4" d="m90.43,232.71c-15.18-.23-33.59,9.39-31.52,36.32,2.54-4.18,4.74-8.56,6.6-13.09,4.74.44,9.52.44,14.26,0,4.79-10.61,14.31-23.17,10.66-23.23Z"/>
    <polygon class="cls-9" points="34.07 305.77 20.61 298.73 21.86 293.92 37.21 301.28 34.07 305.77"/>
    <polygon class="cls-12" points="34.07 305.77 20.61 298.73 21.86 293.92 37.21 301.28 34.07 305.77"/>
    <path class="cls-11" d="m116.36,223.1s-47.42,10.75-47.27,24.91c.33,30.28-.27,59.55-.27,59.55l12.97,2.57s10.81-34.28,10.9-52.63c20.26-7.58,60,9.6,52.31-35.14l-28.64.74Z"/>
    <polygon class="cls-9" points="83.08 312.24 67.15 309.3 66.38 303.98 85.27 306.6 83.08 312.24"/>
    <polygon class="cls-12" points="83.08 312.24 67.15 309.3 66.38 303.98 85.27 306.6 83.08 312.24"/>
    <path class="cls-10" d="m118.45,135.77c.17.75-.09,1.45-.58,1.56s-1-.4-1.2-1.15.08-1.46.57-1.57,1.04.4,1.21,1.16Z"/>
    <path class="cls-10" d="m109.94,137.73c.18.75-.08,1.45-.57,1.56s-1-.4-1.21-1.15.09-1.46.58-1.57,1.05.4,1.2,1.16Z"/>
    <path class="cls-7" d="m112.88,138.51c-.27,1.87-.81,3.69-1.58,5.42.91.38,1.93.33,2.8-.12l-1.22-5.3Z"/>
    <path class="cls-10" d="m118.88,145.79c-.35.14-.72.25-1.09.33-.12.03-.24-.04-.27-.16,0,0,0,0,0-.01-.03-.12.04-.24.16-.27,0,0,0,0,.01,0,1.91-.39,3.51-1.68,4.32-3.45.05-.12.19-.17.3-.11.1.05.16.16.13.27-.68,1.56-1.97,2.79-3.56,3.4Z"/>
    <path class="cls-15" d="m136.29,137.16c-.29,1.82-1.27,3.45-2.75,4.54-2,1.43-3.8-.13-3.95-2.43-.15-2.07.71-5.31,3-5.83,1.69-.36,3.34.71,3.7,2.4.09.44.09.89,0,1.32Z"/>
    <path class="cls-10" d="m119.73,132.51c-.19.04-.39-.03-.5-.19-1.14-1.76-3.84-1.88-3.87-1.88-.25-.01-.45-.22-.44-.47.01-.25.22-.45.47-.44.13,0,3.2.14,4.6,2.29.14.21.08.49-.12.62,0,0,0,0,0,0l-.13.06Z"/>
    <path class="cls-10" d="m105.45,134.35c-.23.1-.49,0-.6-.22-.07-.16-.05-.34.07-.48.86-1.18,2.24-1.87,3.7-1.84.25.02.44.23.42.48,0,0,0,0,0,0-.02.25-.23.44-.48.42,0,0,0,0,0,0-1.16,0-2.24.55-2.92,1.49-.05.07-.11.12-.19.15Z"/>
    <path class="cls-10" d="m62.95,320.96s-.06-.05-.08-.08c-.31-.32-.44-.78-.33-1.21.03-.28.22-.52.48-.62,1.13-.46,4,1.54,4.28,1.76.08.05.11.15.09.24-.02.09-.09.15-.18.17-1.21.29-3.34.5-4.26-.26Zm3.63-.09c-1.15-.76-2.79-1.64-3.39-1.4-.12.04-.2.15-.2.28-.09.29,0,.6.2.81.46.48,1.71.57,3.39.31h0Z"/>
    <path class="cls-10" d="m66.79,320.98c-.91-.76-2.23-2.59-2-3.55.09-.36.42-.61.79-.6.37-.05.74.08,1,.34,1,1,.9,3.72.89,3.84,0,.08-.05.15-.12.19-.07.04-.15.04-.22,0-.12-.06-.23-.14-.34-.22Zm-.63-3.53c-.15-.13-.34-.19-.54-.17-.29,0-.36.15-.39.26-.15.65.87,2.24,1.75,3,0-.92-.17-2.48-.77-3.05l-.05-.04Z"/>
    <path class="cls-10" d="m14.51,307.51c-.72-.4-1.28-1.04-1.58-1.81-.1-.4,0-.83.29-1.14.16-.2.41-.31.66-.28,1.33.14,3.36,3.91,3.59,4.34.05.08.05.18,0,.26-.07.07-.17.09-.26.05-.94-.39-1.85-.87-2.7-1.42Zm-.29-2.6c-.11-.09-.25-.15-.39-.18-.1-.01-.2.03-.26.12-.19.2-.26.48-.2.75.18.76,1.43,1.72,3.37,2.64-.64-1.25-1.49-2.37-2.52-3.32h0Z"/>
    <path class="cls-10" d="m17.14,308.92l-.06-.07c-.65-1.07-1.34-4-.58-4.85.18-.18.51-.34,1.07,0,.39.21.69.57.81,1,.42,1.5-.86,3.75-.91,3.85-.04.07-.12.11-.2.11-.05,0-.09-.01-.13-.04Zm.33-4.49l-.12-.07c-.37-.2-.48-.08-.52,0-.46.47-.12,2.68.44,3.92.55-.94.78-2.04.67-3.12-.06-.29-.23-.56-.47-.73h0Z"/>
    <path class="cls-8" d="m145.49,220.06l1.09,3.46c.14.26-.17.55-.62.56l-40,1c-.35,0-.64-.16-.67-.38l-.44-3.47c0-.24.27-.45.65-.46l39.36-1c.25-.02.49.09.63.29Z"/>
    <path class="cls-10" d="m140.19,224.61h1.06c.21,0,.36-.12.34-.25l-.61-4.51c0-.13-.2-.24-.41-.23h-1c-.21,0-.37.12-.35.25l.61,4.5c-.04.14.15.24.36.24Z"/>
    <path class="cls-10" d="m108.92,225.41h1.06c.21,0,.37-.12.35-.25l-.61-4.51c0-.13-.21-.23-.42-.23h-1c-.21,0-.37.12-.35.25l.61,4.51c-.03.13.15.23.36.23Z"/>
    <path class="cls-10" d="m124.49,225.01h1.06c.21,0,.36-.12.35-.25l-.61-4.51c0-.13-.21-.23-.42-.23h-1.05c-.21,0-.37.12-.35.25l.61,4.51c.02.13.2.23.41.23Z"/>
    <path class="cls-15" d="m120.35,201.84l-9.68-3.66,3.25,9.18s6.06,1,8.49-2.15l-2.06-3.37Z"/>
    <path class="cls-15" d="m154.36,177.31c.41,1.39.68,2.57.94,3.86s.49,2.54.67,3.82c.38,2.61.57,5.24.56,7.87.02,2.81-.31,5.61-1,8.33-.2.74-.44,1.46-.72,2.17-.34.94-.8,1.84-1.37,2.66-1.19,1.6-2.8,2.84-4.65,3.59-1.45.59-2.98.99-4.54,1.18-1.38.19-2.78.27-4.17.25-2.6-.05-5.2-.3-7.76-.74-4.95-.85-9.82-2.15-14.53-3.89l1.3-4.67c4.64.76,9.31,1.27,14,1.52,2.24.12,4.49.09,6.73-.09,1.88-.1,3.73-.53,5.45-1.29.41-.18.76-.47,1-.85.19-.63.35-1.27.47-1.92.32-2.01.41-4.05.27-6.08-.12-2.2-.36-4.39-.72-6.57-.18-1.11-.37-2.22-.59-3.32s-.49-2.26-.71-3.21l9.37-2.62Z"/>
    <path class="cls-9" d="m150.37,164.14c3.92,1.08,6.94,17,6.94,17l-14.85,7.37s-3.77-9.85-2.27-14.93c1.6-5.29,5.7-10.68,10.18-9.44Z"/>
    <path class="cls-10" d="m108.05,212.1h-8.73c-.66-.03-1.23-.49-1.4-1.13l-4.54-18.46c-.16-.44.08-.93.52-1.08.1-.04.21-.05.32-.05h8.74c.66.03,1.23.49,1.4,1.13l4.54,18.45c.16.45-.08.94-.53,1.09-.1.04-.21.05-.32.05Z"/>
    <path class="cls-15" d="m89.73,201.43l5.32-2.25-1.17,10.33c-.5.19-1.02.33-1.55.43-2.43.45-4.76-1.16-5.2-3.59-.15-.79-.07-1.61.2-2.36h0c.42-1.14,1.29-2.07,2.4-2.56Z"/>
    <polygon class="cls-15" points="99.76 200.53 98.78 208.4 93.88 209.5 95.05 199.18 99.76 200.53"/>
    <polygon class="cls-15" points="102.99 200.58 106.12 208.12 113.92 207.36 110.67 198.18 102.99 200.58"/>
    <path class="cls-10" d="m139.53,134.26c-.19-.12-.4-.16-.61-.15,0-.18-.03-.35-.11-.52.31-.18.44-.55.3-.88-.09-.2-.26-.32-.45-.38,0-.11,0-.22-.05-.32-.01-.02-.03-.04-.05-.06.13-.26.14-.55.06-.81.15-.09.28-.19.38-.35.33-.51.17-1.19-.34-1.52-.18-.12-.38-.15-.58-.15.06-.19.1-.38.1-.58,0-.34-.09-.65-.24-.93.32-.26.45-.7.27-1.1-.12-.26-.34-.43-.6-.51,0-.14,0-.29-.07-.43-.09-.19-.24-.33-.41-.42.08-.43-.09-.89-.48-1.14-.19-.12-.4-.16-.61-.15,0-.37-.15-.74-.49-.96-.11-.07-.23-.11-.35-.13-.01-.06-.02-.13-.04-.19-.12-.26-.34-.43-.6-.51,0-.14,0-.29-.07-.43-.2-.46-.73-.66-1.19-.49.02-.13.01-.26-.02-.39-.08-.28-.28-.48-.52-.59.03-.14.03-.29,0-.44-.06-.21-.19-.36-.35-.48-.01-.05-.01-.11-.04-.16-.12-.26-.34-.43-.6-.51,0-.14,0-.29-.07-.43-.21-.47-.77-.69-1.24-.47-.05.02-.1.06-.14.1,0,0-.01-.02-.02-.02-.06-.11-.14-.21-.24-.28-.48-.5-1.15-.82-1.9-.82-.31,0-.6.06-.87.16-.23-.42-.71-.67-1.2-.56-.22.05-.39.18-.54.33-.26-.27-.64-.41-1.03-.32-.2.05-.37.16-.51.3,0-.05,0-.1-.03-.15-.18-.56-.78-.86-1.34-.68-.21.07-.36.2-.48.36-.27-.23-.64-.34-1.01-.22-.24.08-.41.24-.54.43-.39-.23-.9-.2-1.25.13-.16.15-.24.34-.28.53-.35-.1-.73-.03-1.01.23-.13.12-.2.26-.26.42-.04-.07-.08-.14-.14-.2-.4-.43-1.07-.44-1.5-.04-.16.15-.24.34-.28.53-.35-.1-.73-.03-1.01.23-.23.22-.33.52-.32.81-.05-.06-.09-.14-.16-.18-.41-.28-.98-.17-1.26.24-.1.15-.14.33-.14.5-.31-.02-.62.11-.8.38-.08.12-.12.25-.14.38-.09-.04-.19-.07-.29-.07-.21,0-.4.1-.53.25-.1-.05-.2-.08-.31-.08-.39,0-.7.31-.7.7,0,.09.03.17.06.25-.11.04-.22.11-.3.2-.1-.05-.2-.08-.31-.08-.39,0-.7.31-.7.7,0,.14.05.27.13.38-.15.09-.25.25-.3.43-.14.04-.26.11-.35.21-.1-.05-.2-.08-.31-.08-.39,0-.7.31-.7.7,0,.14.05.27.13.38-.13.08-.22.21-.28.35-.09.06-.16.13-.22.22-.19-.13-.45-.18-.68-.07-.35.16-.51.57-.35.92.02.03.04.06.06.09-.37.36-.6.86-.6,1.42,0,.03,0,.05,0,.08-.01,0-.02,0-.04,0-.35.16-.51.57-.35.92.12.26.38.42.65.41-.03.14-.04.3.03.45.16.35.57.51.92.35.13-.06.22-.16.29-.27.16.04.33.07.51.07.76,0,1.41-.42,1.75-1.04.02,0,.04,0,.06,0,.29,0,.56-.06.81-.17.35.28.79.46,1.27.46.76,0,1.41-.42,1.75-1.04.02,0,.04,0,.06,0,.29,0,.56-.06.81-.17.35.28.79.46,1.27.46.36,0,.69-.1.98-.27.1.05.2.08.31.08-.03.14-.04.3.03.45.16.35.57.51.92.35.08-.03.14-.08.2-.14.29.16.61.28.97.28.26,0,.51-.05.74-.14,0,.04-.01.09-.01.13,0,1.11.9,2.02,2.02,2.02.03,0,.05,0,.08,0,.11,1.01.96,1.79,2,1.79.4,0,.77-.12,1.08-.32-.01.11-.01.23.04.34.16.35.57.51.92.35.15-.07.26-.19.33-.33.01,0,.03,0,.04,0,.22.87,1.01,1.52,1.95,1.52.2,0,.39-.04.57-.09.23.85,1.01,1.49,1.94,1.49.76,0,1.41-.42,1.75-1.04.02,0,.04,0,.06,0,.46,0,.87-.16,1.21-.41.22.1.47.15.73.16,0,.83.51,1.6,1.32,1.89-.04.09-.09.19-.12.29-.2.71,0,1.43.47,1.93-.12.13-.23.26-.31.42-.99-.16-1.97.44-2.25,1.43-.24.85.1,1.71.78,2.19-.6.21-1.1.69-1.28,1.35-.08.29-.09.58-.04.85,0,0-.02.01-.02.02-.17.27-.16.61.01.86-.16.06-.3.15-.4.31-.11.17-.14.36-.11.55-.1.14-.18.3-.24.47-.43.25-.77.66-.91,1.18-.3,1.07.32,2.19,1.39,2.49,1.04.29,2.11-.28,2.45-1.29.28-.17.52-.41.7-.7.02,0,.05.02.07.03,1.07.3,2.19-.32,2.49-1.39.18-.63.03-1.27-.33-1.76.66-.18,1.21-.68,1.42-1.39.14-.49.08-.99-.12-1.41.03-.14.04-.28,0-.42.1-.06.2-.14.27-.25.23-.37.13-.85-.24-1.09-.04-.03-.08-.04-.13-.05.09-.15.17-.31.22-.49.2-.71,0-1.43-.47-1.93.17-.18.3-.4.4-.64.09-.07.17-.14.23-.24.18-.28.2-.62.11-.92.15-.09.28-.19.38-.35.33-.51.17-1.19-.34-1.52Z"/>
  </g>
  <g id="Layer_2-2" data-name="Layer 2">
    <g class="cls-16">
      <path class="cls-9" d="m43.83,182.76c-13.82,0-27.64,0-41.46,0-1.94,0-2.36-.42-2.36-2.35,0-14.4.01-28.81-.02-43.21,0-1.22.39-1.99,1.44-2.66,3.29-2.09,6.51-4.3,9.77-6.43.56-.37.64-.83.64-1.42,0-7.66,0-15.32,0-22.98,0-1.88.38-2.27,2.23-2.27,19.84,0,39.67,0,59.51,0,1.85,0,2.23.39,2.23,2.27,0,7.63,0,15.27-.01,22.9,0,.74.21,1.2.86,1.62,3.34,2.16,6.64,4.4,9.97,6.59.7.46,1.02,1.05,1.02,1.87,0,14.74,0,29.48,0,44.21,0,1.35-.6,1.85-2.1,1.85-13.9,0-27.8,0-41.71,0Zm.02-78.22c-9.25,0-18.5,0-27.75,0-1.15,0-1.15,0-1.15,1.17,0,8.39,0,16.77,0,25.16,0,3.29.01,6.57-.01,9.86,0,.67.19,1.1.82,1.38.64.28,1.24.63,1.86.96,6.96,3.7,13.92,7.39,20.88,11.1.41.22.7.2,1.07-.05,1.06-.72,2.14-1.41,3.21-2.11.7-.47,1.38-.49,2.1,0,.94.64,1.94,1.21,2.85,1.89.63.47,1.13.45,1.81.09,7.37-3.94,14.75-7.86,22.15-11.74.82-.43,1.06-.92,1.06-1.81-.03-11.56-.02-23.12-.02-34.68,0-1.2,0-1.2-1.2-1.2-9.22,0-18.44,0-27.66,0Zm36.98,75.1c-.31-.22-.44-.32-.58-.41-3.6-2.39-7.2-4.77-10.79-7.16-8.19-5.44-16.39-10.87-24.57-16.33-.79-.53-1.33-.53-2.14.02-4.47,3.04-8.99,6-13.49,8.99-6.94,4.6-13.89,9.2-20.83,13.8-.48.32-.95.66-1.58,1.09h73.97Zm-29.24-23.2c2.22,1.46,4.29,2.82,6.35,4.19,8.56,5.68,17.12,11.37,25.68,17.04.24.16.5.5.79.34.3-.16.14-.56.14-.85,0-12.39,0-24.78,0-37.18,0-1.03,0-1.04-.9-.57-8.66,4.59-17.32,9.18-25.97,13.77-1.99,1.05-3.97,2.12-6.1,3.25Zm-48.49,2.04c0,6.21,0,12.42,0,18.64,0,.17,0,.33,0,.5,0,.44.17.57.55.32.35-.23.7-.46,1.05-.69,4.45-2.96,8.9-5.93,13.36-8.88,5.71-3.79,11.42-7.57,17.13-11.36.88-.58.86-.6-.11-1.11-3.62-1.91-7.24-3.82-10.86-5.74-6.77-3.59-13.53-7.19-20.29-10.77-.81-.43-.82-.41-.82.54,0,6.18,0,12.37,0,18.55Zm3.78-23.73c.99,0,1.74.01,2.49,0,2.97-.06,2.41.52,2.48-2.58,0-.06,0-.11,0-.17,0-.44-.18-.47-.5-.25-1.42.96-2.85,1.91-4.46,3Zm73.92,0c-1.64-1.09-3.08-2.04-4.53-3-.3-.2-.46-.14-.45.24,0,.72,0,1.44,0,2.16,0,.43.22.6.62.6,1.37,0,2.75,0,4.36,0Zm-1.45,3.38c-.02-.06-.05-.13-.07-.19-.94,0-1.88,0-2.83,0-.29,0-.59.04-.61.42-.02.49-.11.99.08,1.47.01.03.21.02.3-.02,1.05-.55,2.09-1.12,3.13-1.68Zm-71.2-.18c1.13.81,2.21,1.23,3.2,1.8.12.07.3.14.38,0,.24-.43.11-.92.1-1.38,0-.31-.23-.42-.51-.42-.98,0-1.97,0-3.17,0Z"/>
      <path class="cls-9" d="m48.88,136.59c1.89,0,3.79,0,5.68,0,.19,0,.39,0,.58,0,1.11.06,1.77.67,1.76,1.6-.01.93-.7,1.55-1.79,1.56-2.31.02-4.62.03-6.94,0-2-.02-4.01.12-6.01-.12-6.3-.73-11.32-6.28-11.42-12.63-.09-5.88,2.44-10.21,7.75-12.75,7.61-3.64,17.07,1.51,18.25,9.86.2,1.41.32,2.84.04,4.24-.42,2.08-1.73,3.43-3.76,3.94-1.98.49-3.77,0-5.16-1.55-.39-.43-.64-.45-1.11-.16-2.98,1.83-6.55,1.18-8.56-1.53-2-2.69-1.63-6.35.94-8.6,1.94-1.69,4.2-2.02,6.56-1.08,2.56,1.02,3.81,3.06,3.99,5.77.05.72,0,1.45.02,2.17.05,1.13.88,1.99,1.93,2.02,1.1.04,2.03-.78,2.16-1.91.62-5.2-3.3-10.36-8.4-11.05-5.56-.75-10.54,2.85-11.39,8.24-.89,5.64,2.32,10.45,7.87,11.8.68.17,1.38.15,2.08.16,1.64.01,3.29,0,4.93,0Zm-5.59-14.54c-1.8,0-3.25,1.44-3.24,3.23,0,1.72,1.55,3.23,3.29,3.22,1.74,0,3.15-1.45,3.16-3.21,0-1.82-1.4-3.24-3.21-3.23Z"/>
    </g>
  </g>
</svg>