<?xml version="1.0" encoding="UTF-8"?>
<svg id="Layer_2" data-name="Layer 2" xmlns="http://www.w3.org/2000/svg" viewBox="0 0 318.43 288.99">
  <defs>
    <style>
      .cls-1 {
        opacity: .8;
      }

      .cls-1, .cls-2, .cls-3, .cls-4, .cls-5, .cls-6, .cls-7, .cls-8, .cls-9, .cls-10, .cls-11, .cls-12, .cls-13, .cls-14, .cls-15, .cls-16, .cls-17, .cls-18 {
        stroke-width: 0px;
      }

      .cls-1, .cls-3, .cls-6, .cls-7, .cls-8, .cls-11, .cls-12, .cls-16, .cls-18 {
        isolation: isolate;
      }

      .cls-1, .cls-3, .cls-7, .cls-8, .cls-9, .cls-11, .cls-12, .cls-16 {
        fill: #fff;
      }

      .cls-19, .cls-8 {
        opacity: .5;
      }

      .cls-2 {
        fill: #f14d63;
      }

      .cls-3 {
        opacity: .7;
      }

      .cls-4 {
        fill: #eec1bb;
      }

      .cls-6, .cls-11, .cls-20 {
        opacity: .2;
      }

      .cls-7, .cls-21 {
        opacity: .3;
      }

      .cls-10 {
        fill: #d4827d;
      }

      .cls-12 {
        opacity: .6;
      }

      .cls-13 {
        fill: #263238;
      }

      .cls-14 {
        fill: #84c3ff;
      }

      .cls-15 {
        fill: #1c4388;
      }

      .cls-16, .cls-18 {
        opacity: .1;
      }

      .cls-17 {
        fill: #ebc0bb;
      }
    </style>
  </defs>
  <g id="Layer_1-2" data-name="Layer 1">
    <g id="freepik--Banknotes--inject-2">
      <rect class="cls-14" x="50.49" y="80.36" width="92.82" height="192.17" transform="translate(-90.05 101.8) rotate(-39.46)"/>
      <polygon class="cls-18" points="193.81 221.15 173.7 237.69 135.84 268.86 122.15 280.13 107.8 262.68 82.29 231.7 .02 131.75 14.2 120.07 33.54 104.17 71.69 72.77 83.32 86.91 187.02 212.9 193.81 221.15"/>
      <g class="cls-21">
        <path class="cls-9" d="m104.72,168.08l2.73-2.25,1.66,2-2.72,2.24c1.83,2.51,3,5.48,2.9,7.66l-3.37.93c-.1-2.3-.85-4.53-2.17-6.42l-4.89,4c1.57,3.25,3.09,6.89-.31,9.69-2.5,2-6.16,2-9.67-1.48l-2.76,2.27-1.65-2,2.71-2.24c-1.37-1.79-2.27-3.89-2.62-6.12l3.29-1c.29,1.8.95,3.52,1.94,5.05l4.94-4.07c-1.57-3.25-3.15-6.92.25-9.72,2.52-2.12,6.18-2.06,9.74,1.46Zm-8.82,10.62l-4.34,3.58c1.69,1.52,3.18,1.53,4.25.64s.84-2.46.09-4.22Zm1.9-9.2c-1.19,1-.87,2.53-.08,4.34l4.33-3.56c-1.74-1.57-3.19-1.64-4.25-.78h0Z"/>
      </g>
      <path class="cls-7" d="m179.05,211.5l-100.74-122.4c-4.55,3.75-11.28,3.11-15.03-1.44,0,0-.01-.01-.02-.02l-47,38.7c3.72,4.55,3.07,11.25-1.46,15l100.76,122.45c4.55-3.72,11.25-3.07,15,1.46l47-38.7c-3.74-4.56-3.08-11.3,1.48-15.04,0,0,0,0,0,0Zm-142.49-59.28c-1.05.86-2.59.71-3.45-.34,0,0,0,0,0,0l-6.8-8.26c-.86-1.05-.71-2.59.34-3.45,0,0,0,0,0,0h0c1.05-.86,2.59-.71,3.45.34,0,0,0,0,0,0l6.8,8.26c.86,1.05.71,2.59-.34,3.45,0,0,0,0,0,0Zm73.37,40.07c-8.75,7.2-21.68,5.95-28.88-2.8-7.2-8.75-5.95-21.68,2.8-28.88,8.75-7.2,21.68-5.95,28.88,2.8,0,0,0,0,0,0,7.2,8.74,5.96,21.67-2.77,28.88h-.03Zm57.2,20.44c-1.05.86-2.59.71-3.45-.34,0,0,0,0,0,0l-6.8-8.26c-.86-1.04-.71-2.59.33-3.45,1.04-.86,2.59-.71,3.45.33l6.8,8.27c.86,1.04.73,2.58-.3,3.45h-.03Z"/>
      <polygon class="cls-18" points="187.02 212.9 107.8 262.68 82.29 231.7 14.2 120.07 33.54 104.17 83.32 86.91 187.02 212.9"/>
      <rect class="cls-14" x="50.48" y="57.98" width="92.82" height="192.17" transform="translate(-64.16 69.28) rotate(-30.07)"/>
      <polygon class="cls-18" points="185.19 213.97 104.87 260.47 97.35 247.49 78 214.08 8.58 94.17 31.67 80.8 50.06 70.15 88.9 47.66 97.93 63.26 184.3 212.44 185.19 213.97"/>
      <g class="cls-21">
        <path class="cls-9" d="m105.94,147.09l3.08-1.78,1.3,2.25-3,1.76c1.39,2.78,2,5.89,1.62,8l-3.49.37c.28-2.29-.1-4.61-1.09-6.69l-5.48,3.17c1,3.48,1.92,7.31-1.89,9.52-2.79,1.62-6.41,1-9.29-3l-3.1,1.79-1.3-2.24,3-1.77c-1.05-2.01-1.59-4.26-1.55-6.53l3.42-.48c-.01,1.82.36,3.63,1.09,5.3l5.54-3.21c-1-3.47-2-7.34,1.83-9.54,2.78-1.65,6.38-.97,9.31,3.08Zm-10.43,9l-4.88,2.82c1.43,1.77,2.9,2,4.1,1.33s1.24-2.25.83-4.11l-.05-.04Zm3.38-8.77c-1.34.78-1.27,2.35-.78,4.26l4.85-2.8c-1.46-1.79-2.89-2.1-4.07-1.42v-.04Z"/>
      </g>
      <path class="cls-7" d="m172.2,202.05L92.77,64.86c-5.1,2.96-11.64,1.21-14.59-3.89,0,0,0,0,0,0l-52.71,30.52c2.96,5.1,1.21,11.64-3.89,14.59,0,0,0,0,0,0l79.43,137.2c5.11-2.96,11.65-1.22,14.61,3.89,0,0,0,0,0,0l52.7-30.51c-2.96-5.11-1.21-11.65,3.9-14.61h0ZM41.32,120.36c-1.17.68-2.67.28-3.35-.89h0s-5.36-9.26-5.36-9.26c-.68-1.17-.28-2.67.89-3.35,0,0,0,0,0,0h0c1.17-.68,2.67-.28,3.35.89h0s5.36,9.27,5.36,9.27c.68,1.16.28,2.66-.88,3.34,0,0,0,0,0,0Zm65.85,51.51c-9.8,5.69-22.36,2.36-28.05-7.44s-2.36-22.36,7.44-28.05c9.8-5.69,22.36-2.36,28.05,7.44,0,.02.02.03.03.05,5.62,9.79,2.28,22.28-7.47,27.96v.04Zm53.1,29.49c-1.17.68-2.67.28-3.35-.9,0,0,0,0,0,0l-5.36-9.3c-.72-1.15-.37-2.66.78-3.38,1.15-.72,2.66-.37,3.38.78.03.05.06.1.09.15l5.36,9.26c.7,1.16.32,2.67-.84,3.36-.02,0-.03.02-.05.03Z"/>
      <polygon class="cls-18" points="184.3 212.44 97.35 247.49 78 214.08 31.67 80.8 50.06 70.15 97.93 63.26 184.3 212.44"/>
      <rect class="cls-14" x="58.43" y="40.4" width="92.82" height="192.17" transform="translate(-38.74 41.59) rotate(-19.01)"/>
      <rect class="cls-18" x="58.43" y="40.4" width="92.82" height="192.17" transform="translate(-38.74 41.59) rotate(-19.01)"/>
      <g class="cls-21">
        <path class="cls-9" d="m115.08,131.36l3.35-1.15.85,2.45-3.33,1.15c.83,3,.86,6.17,0,8.19l-3.48-.3c.71-2.2.78-4.55.21-6.78l-6,2.07c.34,3.6.48,7.54-3.68,9-3.05,1.05-6.48-.25-8.54-4.76l-3.33,1.13-.85-2.45,3.32-1.15c-.64-2.18-.73-4.49-.26-6.71l3.44.19c-.36,1.79-.34,3.63.06,5.41l6.05-2.09c-.34-3.6-.54-7.58,3.62-9,3.05-1.05,6.47.29,8.57,4.8Zm-12,6.88l-5.33,1.83c1.07,2,2.45,2.54,3.77,2.09s1.67-1.99,1.58-3.9l-.02-.02Zm5-8c-1.46.51-1.7,2.06-1.59,4l5.3-1.82c-1.06-1.98-2.4-2.56-3.69-2.12l-.02-.06Z"/>
      </g>
      <path class="cls-7" d="m169.56,198.04L117.93,48.16c-5.58,1.92-11.67-1.04-13.59-6.63,0,0,0,0,0,0l-57.58,19.83c1.92,5.58-1.04,11.67-6.63,13.59,0,0,0,0,0,0l51.63,149.89c5.58-1.92,11.67,1.04,13.59,6.63,0,0,0,0,0,0l57.58-19.84c-1.92-5.58,1.04-11.67,6.63-13.59,0,0,0,0,0,0ZM56.79,92.72c-1.28.44-2.68-.24-3.12-1.52l-3.48-10.11c-.44-1.28.24-2.68,1.52-3.12h0c1.28-.44,2.67.24,3.11,1.52l3.49,10.12c.44,1.28-.24,2.67-1.52,3.11Zm54.77,63.18c-10.72,3.69-22.39-2-26.08-12.72s2-22.39,12.72-26.08,22.39,2,26.08,12.72c0,0,0,0,0,0,3.69,10.71-2,22.38-12.71,26.07,0,0,0,0-.01,0Zm46.46,39.13c-1.28.44-2.68-.24-3.12-1.52l-3.51-10.15c-.49-1.26.13-2.68,1.39-3.18s2.68.13,3.18,1.39c.03.07.05.13.07.2l3.48,10.12c.46,1.26-.19,2.66-1.45,3.12-.02,0-.04.02-.06.02h.03Z"/>
      <path class="cls-18" d="m81.48,256.75c-13.16,3.52-26.68-4.31-30.2-17.47-.35-1.31-.59-2.64-.72-3.98,13.13-3.53,26.64,4.25,30.17,17.39.36,1.33.6,2.69.73,4.06h.02Z"/>
      <circle class="cls-18" cx="110.31" cy="191.3" r="24.63"/>
      <path class="cls-18" d="m173.7,237.69l-37.86,31.17c-9.6-9.64-9.56-25.23.07-34.83,9.64-9.6,25.23-9.56,34.83.07,1.1,1.1,2.08,2.3,2.95,3.59Z"/>
    </g>
    <g id="freepik--Coins--inject-2">
      <path class="cls-14" d="m116.56,281.45v4.57c0,.41-.16.8-.45,1.08-.07.07-.15.13-.23.19-.26.18-.56.27-.87.27h-47.75c-.16-.04-.32-.11-.46-.2-.06-.04-.11-.08-.16-.12l-.12-.12h0s-.08-.1-.11-.15l-.05-.08h0s-.06-.08-.07-.13h0v-.11h0v-.17s0,0,0,0c0-.07,0-.14,0-.21v-4.61c-.02-.83.64-1.51,1.47-1.53.02,0,.05,0,.07,0h47.35c.1-.01.21-.01.31,0h.06c.08.01.16.04.23.08h.07l.16.09h0l.18.15.07.06.1.14s.09.11.12.17c0,.02,0,.05,0,.07.03.06.06.12.08.19.04.07.06.16.07.24-.02.04-.05.09-.07.13Z"/>
      <path class="cls-7" d="m116.56,281.45v4.57c0,.4-.16.79-.44,1.08-.07.07-.15.13-.23.19-.26.18-.56.27-.87.27h-47.76c-.16-.04-.32-.11-.46-.2-.06-.04-.11-.08-.16-.12l-.12-.12h0s-.06-.08-.08-.12h0l-.05-.08v-.07h0s-.04-.08-.06-.12v-.33s0,0,0,0c0-.07,0-.14,0-.21v-4.61c-.09-.42,0-.86.23-1.22.29-.29.69-.45,1.1-.45h47.75c.07.02.14.04.2.08.02,0,.05,0,.07,0l.18.09h0l.18.15.07.06.1.14s.09.11.12.17c0,.02,0,.05,0,.07.03.06.06.12.08.19.03.08.05.16.07.24.08.18.08.26.08.35Z"/>
      <path class="cls-11" d="m115.85,280.15h-37.51c-.52,0-.94.42-.94.94,0,0,0,0,0,.01v5c0,.47-.38.85-.85.85h-10.12l-.05-.08h0v-.08h0v-.11h0c-.01-.06-.01-.11,0-.17h0c0-.07,0-.14,0-.21v-4.61c-.14-.45-.07-.94.18-1.33.29-.29.69-.45,1.1-.45h47.75c.07.02.14.04.2.08.02,0,.05,0,.07,0l.17.16Z"/>
      <path class="cls-18" d="m116.56,281.45v4.57c0,.4-.16.79-.44,1.08-.07.07-.15.13-.23.19-.26.18-.56.27-.87.27h-47.76c-.16-.04-.32-.11-.46-.2h37.51c.52,0,.94-.42.94-.94h0v-5c0-.47.38-.85.85-.85h10.12s.09.11.12.17c0,.02,0,.05,0,.07.03.06.06.12.08.19.03.08.05.16.07.24.07.04.07.12.07.21Z"/>
      <g class="cls-20">
        <path class="cls-5" d="m68.69,286.69c-.13,0-.23-.09-.24-.22,0,0,0,0,0-.01v-5.45c0-.13.11-.24.24-.24.13,0,.24.11.24.24v5.45c0,.13-.1.23-.23.23,0,0,0,0-.01,0Z"/>
        <path class="cls-5" d="m71.21,286.69c-.13,0-.23-.09-.24-.22,0,0,0,0,0-.01v-5.45c-.03-.13.06-.26.19-.28.13-.03.26.06.28.19,0,.03,0,.07,0,.1v5.45c0,.13-.1.23-.23.23h0Z"/>
        <path class="cls-5" d="m73.72,286.69c-.13,0-.23-.09-.24-.22,0,0,0,0,0-.01v-5.45c0-.13.11-.24.24-.24.13,0,.24.11.24.24v5.45c0,.13-.1.23-.23.23,0,0,0,0-.01,0Z"/>
        <path class="cls-5" d="m76.24,286.69c-.13,0-.23-.09-.24-.22,0,0,0,0,0-.01v-5.45c-.03-.13.06-.26.19-.28.13-.03.26.06.28.19,0,.03,0,.07,0,.1v5.45c0,.13-.1.23-.23.23h0Z"/>
        <path class="cls-5" d="m78.75,286.69c-.13,0-.23-.09-.24-.22,0,0,0,0,0-.01v-5.45c0-.13.11-.24.24-.24.13,0,.24.11.24.24v5.45c0,.13-.1.23-.23.23,0,0,0,0-.01,0Z"/>
        <path class="cls-5" d="m81.27,286.69c-.13,0-.23-.09-.24-.22,0,0,0,0,0-.01v-5.45c-.03-.13.06-.26.19-.28.13-.03.26.06.28.19,0,.03,0,.07,0,.1v5.45c0,.13-.1.23-.23.23h0Z"/>
        <path class="cls-5" d="m83.78,286.69c-.13,0-.23-.09-.24-.22,0,0,0,0,0-.01v-5.45c0-.13.11-.24.24-.24.13,0,.24.11.24.24v5.45c0,.13-.1.23-.23.23,0,0,0,0-.01,0Z"/>
        <path class="cls-5" d="m86.3,286.69c-.13,0-.23-.09-.24-.22,0,0,0,0,0-.01v-5.45c0-.13.11-.24.24-.24.13,0,.24.11.24.24h0v5.45c0,.13-.1.23-.23.23,0,0,0,0-.01,0Z"/>
        <path class="cls-5" d="m88.81,286.69c-.13,0-.23-.09-.24-.22,0,0,0,0,0-.01v-5.45c0-.13.11-.24.24-.24.13,0,.24.11.24.24v5.45c0,.13-.1.23-.23.23,0,0,0,0-.01,0Z"/>
        <path class="cls-5" d="m91.33,286.69c-.13,0-.23-.09-.24-.22,0,0,0,0,0-.01v-5.45c0-.13.11-.24.24-.24.13,0,.24.11.24.24h0v5.45c0,.13-.1.23-.23.23,0,0,0,0-.01,0Z"/>
        <path class="cls-5" d="m93.84,286.69c-.13,0-.23-.1-.23-.23h0v-5.45c0-.13.09-.23.22-.24,0,0,0,0,.01,0,.13,0,.24.11.24.24v5.45c0,.13-.1.23-.23.23,0,0,0,0-.01,0Z"/>
        <path class="cls-5" d="m96.36,286.69c-.13,0-.23-.09-.24-.22,0,0,0,0,0-.01v-5.45c0-.13.11-.24.24-.24.13,0,.24.11.24.24h0v5.45c0,.13-.1.23-.23.23,0,0,0,0-.01,0Z"/>
        <path class="cls-5" d="m98.87,286.69c-.13,0-.23-.1-.23-.23h0v-5.45c-.03-.13.06-.26.19-.28.13-.03.26.06.28.19,0,.03,0,.07,0,.1v5.45c0,.13-.1.23-.23.23,0,0,0,0-.01,0Z"/>
        <path class="cls-5" d="m101.39,286.69c-.13,0-.23-.09-.24-.22,0,0,0,0,0-.01v-5.45c0-.13.11-.24.24-.24.13,0,.24.11.24.24h0v5.45c0,.13-.1.23-.23.23,0,0,0,0-.01,0Z"/>
        <path class="cls-5" d="m103.9,286.69c-.13,0-.23-.1-.23-.23h0v-5.45c-.03-.13.06-.26.19-.28.13-.03.26.06.28.19,0,.03,0,.07,0,.1v5.45c0,.13-.1.23-.23.23,0,0,0,0-.01,0Z"/>
        <path class="cls-5" d="m106.42,286.69c-.13,0-.23-.09-.24-.22,0,0,0,0,0-.01v-5.45c0-.13.11-.24.24-.24.13,0,.24.11.24.24h0v5.45c0,.13-.1.23-.23.23,0,0,0,0-.01,0Z"/>
        <path class="cls-5" d="m108.94,286.69c-.13,0-.23-.09-.24-.22,0,0,0,0,0-.01v-5.45c-.03-.13.06-.26.19-.28.13-.03.26.06.28.19,0,.03,0,.07,0,.1v5.45c0,.13-.1.23-.23.23h0Z"/>
        <path class="cls-5" d="m111.45,286.69c-.13,0-.23-.09-.24-.22,0,0,0,0,0-.01v-5.45c0-.13.11-.24.24-.24.13,0,.24.11.24.24v5.45c0,.13-.1.23-.23.23,0,0,0,0-.01,0Z"/>
        <path class="cls-5" d="m113.97,286.69c-.13,0-.23-.09-.24-.22,0,0,0,0,0-.01v-5.45c-.03-.13.06-.26.19-.28.13-.03.26.06.28.19,0,.03,0,.07,0,.1v5.45c0,.13-.1.23-.23.23h0Z"/>
      </g>
      <path class="cls-14" d="m117.56,273.85v4.56c0,.41-.16.8-.46,1.09-.29.29-.69.45-1.1.45h-47.76c-.15-.04-.3-.11-.43-.2h0c-.08-.05-.16-.12-.23-.19-.05-.05-.1-.1-.14-.16h0v-.06h0s-.08-.1-.1-.16h0v-.1s0-.03,0-.05v-.06s0-.07,0-.11h0c0-.07,0-.14,0-.21v-4.61c0-.31.09-.61.27-.86.05-.09.11-.17.19-.23.18-.19.42-.33.68-.4h0c.12-.03.25-.05.37-.05h47.75s.05-.01.07,0c.02,0,.03,0,.05,0h-.16c.09.03.17.08.25.13.07.04.13.09.19.15l.08.08s.07.08.1.13l.13.17s0,.05,0,.07c0,.07.05.12.07.19.04.08.06.16.07.25.04.06.08.12.11.18Z"/>
      <path class="cls-7" d="m117.5,273.85v4.56c0,.85-.69,1.54-1.54,1.54,0,0,0,0-.01,0h-47.71c-.15-.04-.3-.11-.43-.2h0c-.08-.05-.16-.12-.23-.19-.05-.05-.1-.1-.14-.16h0v-.06s-.05-.06-.07-.1c-.01-.03-.03-.07-.05-.1h0v-.1s0-.07,0-.11c0-.04,0-.07,0-.11h0c0-.07,0-.14,0-.21v-4.61c0-.31.09-.61.27-.86.05-.09.11-.17.19-.23.18-.19.42-.33.68-.4h0c.12-.03.25-.05.37-.05h47.83c.09.03.17.08.25.13.07.04.13.09.19.15l.08.08s.07.08.1.13l.13.17s0,.05,0,.07c0,.07.05.12.07.19.03.08.05.17.07.25-.01.07-.03.15-.05.22Z"/>
      <path class="cls-11" d="m116.8,272.55h-37.5c-.52-.03-.96.36-1,.88,0,.02,0,.04,0,.06v5c0,.47-.37.84-.84.85h-10.08v-.06h0l-.05-.06s-.03-.07-.05-.1h0v-.1s0-.03,0-.05c-.02-.05-.04-.11-.05-.17h0c0-.07,0-.14,0-.21v-4.61c0-.31.09-.61.27-.86.05-.09.11-.17.19-.23.18-.19.42-.33.68-.4h0c.12-.03.25-.05.37-.05h47.89c.06.03.12.07.17.11Z"/>
      <path class="cls-18" d="m117.5,273.85v4.56c0,.85-.69,1.54-1.54,1.54,0,0,0,0-.01,0h-47.71c-.15-.04-.3-.11-.43-.2h37.45c.52,0,.94-.42.94-.94,0,0,0,0,0-.01v-5c0-.47.38-.85.85-.85h10.12l.13.17s0,.05,0,.07c0,.07.05.12.07.19.03.08.05.17.07.25.02.07.04.15.06.22Z"/>
      <g class="cls-20">
        <path class="cls-5" d="m69.64,279.08c-.13,0-.23-.1-.23-.23h0v-5.49c-.03-.13.06-.26.19-.28.13-.03.26.06.28.19,0,.03,0,.07,0,.1v5.45c.02.13-.06.24-.19.27-.02,0-.04,0-.05,0Z"/>
        <path class="cls-5" d="m72.16,279.08c-.13,0-.23-.09-.24-.22,0,0,0,0,0-.01v-5.49c0-.13.11-.24.24-.24.13,0,.24.11.24.24v5.45c.02.13-.06.24-.19.27-.02,0-.04,0-.05,0Z"/>
        <path class="cls-5" d="m74.67,279.08c-.13,0-.23-.1-.23-.23h0v-5.49c-.03-.13.06-.26.19-.28.13-.03.26.06.28.19,0,.03,0,.07,0,.1v5.45c.02.13-.06.24-.19.27-.02,0-.04,0-.05,0Z"/>
        <path class="cls-5" d="m77.19,279.08c-.13,0-.23-.09-.24-.22,0,0,0,0,0-.01v-5.49c0-.13.11-.24.24-.24.13,0,.24.11.24.24v5.45c.02.13-.06.24-.19.27-.02,0-.04,0-.05,0Z"/>
        <path class="cls-5" d="m79.7,279.08c-.13,0-.23-.1-.23-.23h0v-5.49c-.03-.13.06-.26.19-.28.13-.03.26.06.28.19,0,.03,0,.07,0,.1v5.45c.02.13-.06.24-.19.27-.02,0-.04,0-.05,0Z"/>
        <path class="cls-5" d="m82.22,279.08c-.13,0-.23-.09-.24-.22,0,0,0,0,0-.01v-5.49c0-.13.11-.24.24-.24.13,0,.24.11.24.24v5.45c.02.13-.06.24-.19.27-.02,0-.04,0-.05,0Z"/>
        <path class="cls-5" d="m84.74,279.08c-.13,0-.23-.09-.24-.22,0,0,0,0,0-.01v-5.49c-.03-.13.06-.26.19-.28.13-.03.26.06.28.19,0,.03,0,.07,0,.1v5.45c.02.13-.06.24-.19.27-.01,0-.03,0-.04,0Z"/>
        <path class="cls-5" d="m87.25,279.08c-.13,0-.23-.09-.24-.22,0,0,0,0,0-.01v-5.49c0-.13.11-.24.24-.24.13,0,.24.11.24.24v5.45c.02.13-.06.24-.19.27-.02,0-.04,0-.05,0Z"/>
        <path class="cls-5" d="m89.77,279.08c-.13,0-.23-.09-.24-.22,0,0,0,0,0-.01v-5.49c-.03-.13.06-.26.19-.28.13-.03.26.06.28.19,0,.03,0,.07,0,.1v5.45c.02.13-.06.24-.19.27-.01,0-.03,0-.04,0Z"/>
        <path class="cls-5" d="m92.28,279.08c-.13,0-.23-.09-.24-.22,0,0,0,0,0-.01v-5.49c0-.13.11-.24.24-.24.13,0,.24.11.24.24v5.45c.02.13-.06.24-.19.27-.02,0-.04,0-.05,0Z"/>
        <path class="cls-5" d="m94.8,279.08c-.13,0-.23-.09-.24-.22,0,0,0,0,0-.01v-5.49c0-.13.11-.24.24-.24.13,0,.24.11.24.24h0v5.45c.02.13-.06.24-.19.27-.02,0-.04,0-.05,0Z"/>
        <path class="cls-5" d="m97.31,279.08c-.13,0-.23-.09-.24-.22,0,0,0,0,0-.01v-5.49c0-.13.11-.24.24-.24.13,0,.24.11.24.24h0v5.45c.02.13-.06.24-.19.27-.02,0-.04,0-.05,0Z"/>
        <path class="cls-5" d="m99.83,279.08c-.13,0-.23-.09-.24-.22,0,0,0,0,0-.01v-5.49c0-.13.11-.24.24-.24.13,0,.24.11.24.24h0v5.45c.02.13-.06.24-.19.27-.02,0-.04,0-.05,0Z"/>
        <path class="cls-5" d="m102.34,279.08c-.13,0-.23-.09-.24-.22,0,0,0,0,0-.01v-5.49c0-.13.11-.24.24-.24.13,0,.24.11.24.24v5.45c.02.13-.06.24-.19.27-.02,0-.04,0-.05,0Z"/>
        <path class="cls-5" d="m104.86,279.08c-.13,0-.23-.09-.24-.22,0,0,0,0,0-.01v-5.49c0-.13.11-.24.24-.24.13,0,.24.11.24.24h0v5.45c.02.13-.06.24-.19.27-.02,0-.04,0-.05,0Z"/>
        <path class="cls-5" d="m107.37,279.08c-.13,0-.23-.1-.23-.23h0v-5.49c-.03-.13.06-.26.19-.28.13-.03.26.06.28.19,0,.03,0,.07,0,.1v5.45c.02.13-.06.24-.19.27-.02,0-.04,0-.05,0Z"/>
        <path class="cls-5" d="m109.89,279.08c-.13,0-.23-.09-.24-.22,0,0,0,0,0-.01v-5.49c0-.13.11-.24.24-.24.13,0,.24.11.24.24h0v5.45c.02.13-.06.24-.19.27-.02,0-.04,0-.05,0Z"/>
        <path class="cls-5" d="m112.4,279.08c-.13,0-.23-.1-.23-.23h0v-5.49c-.03-.13.06-.26.19-.28.13-.03.26.06.28.19,0,.03,0,.07,0,.1v5.45c.02.13-.06.24-.19.27-.02,0-.04,0-.05,0Z"/>
        <path class="cls-5" d="m114.92,279.08c-.13,0-.23-.09-.24-.22,0,0,0,0,0-.01v-5.49c0-.13.11-.24.24-.24.13,0,.24.11.24.24h0v5.45c.02.13-.06.24-.19.27-.02,0-.04,0-.05,0Z"/>
      </g>
      <path class="cls-14" d="m116.56,266.23v4.57c0,.21-.04.41-.12.6h0c-.07.18-.18.34-.32.48-.2.2-.46.33-.73.4-.12.03-.25.05-.37.05h-47.37c-.1,0-.21,0-.31,0-.1-.02-.2-.05-.29-.09-.08-.03-.16-.07-.23-.13h0l-.21-.16c-.05-.06-.1-.12-.14-.18v-.05h0c-.05-.06-.09-.13-.11-.2-.02-.03-.04-.07-.05-.11,0-.06,0-.11,0-.17v-.08c0-.08,0-.17,0-.25v-4.57c0-.71.48-1.33,1.17-1.5.12-.01.25-.01.37,0h47.75s.05-.01.07,0h-.11l.25.13.19.16.08.07c.1.09.18.2.23.33h0c0,.07.07.15.09.21.09.15.14.32.16.49Z"/>
      <path class="cls-7" d="m116.56,266.24v4.56c0,.21-.03.41-.11.6h0c-.08.18-.19.34-.32.48-.19.19-.44.33-.7.4-.13.04-.26.06-.4.06h-47.38c-.1.02-.21.02-.31,0-.1-.02-.2-.05-.29-.09-.09-.03-.17-.08-.25-.13h0l-.21-.16c-.05-.06-.1-.12-.14-.18v-.05h0l-.06-.09h0c-.04-.07-.08-.15-.1-.23,0-.06,0-.11,0-.17v-.08c0-.08,0-.17,0-.25v-4.57c0-.71.48-1.33,1.17-1.5.12-.01.25-.01.37,0h47.83l.25.13.19.16.08.07.1.14c.05.05.1.12.13.19h0c0,.07.07.15.09.21.05.16.07.33.06.5Z"/>
      <path class="cls-11" d="m115.85,264.94h-37.51c-.52,0-.94.42-.94.94,0,0,0,0,0,.01v5c0,.47-.38.85-.85.85h-10.12v-.05h0v-.06h0v-.12s-.04-.07-.05-.11c0-.06,0-.11,0-.17v-.08c0-.08,0-.17,0-.25v-4.57c0-.71.48-1.33,1.17-1.5.12-.01.25-.01.37,0h47.85l.08.11Z"/>
      <path class="cls-18" d="m116.56,266.24v4.56c0,.21-.03.41-.11.6h0c-.08.18-.19.34-.32.48-.19.19-.44.33-.7.4-.13.04-.26.06-.4.06h-47.38c-.1.02-.21.02-.31,0-.1-.02-.2-.05-.29-.09-.09-.03-.17-.08-.25-.13h37.51c.52,0,.94-.42.94-.94h0v-5c0-.47.38-.84.85-.84h10.12c.05.05.1.12.13.19h0c0,.07.07.15.09.21.07.16.11.33.12.5Z"/>
      <g class="cls-20">
        <path class="cls-5" d="m68.69,271.47c-.13,0-.23-.09-.24-.22,0,0,0,0,0-.01v-5.45c0-.13.11-.24.24-.24.13,0,.24.11.24.24h0v5.45c0,.13-.1.23-.23.23,0,0,0,0-.01,0Z"/>
        <path class="cls-5" d="m71.21,271.47c-.13,0-.23-.09-.24-.22,0,0,0,0,0-.01v-5.45c-.03-.13.06-.26.19-.28.13-.03.26.06.28.19,0,.03,0,.07,0,.1v5.45c0,.13-.1.23-.23.23h0Z"/>
        <path class="cls-5" d="m73.72,271.47c-.13,0-.23-.09-.24-.22,0,0,0,0,0-.01v-5.45c0-.13.11-.24.24-.24.13,0,.24.11.24.24v5.45c0,.13-.1.23-.23.23,0,0,0,0-.01,0Z"/>
        <path class="cls-5" d="m76.24,271.47c-.13,0-.23-.09-.24-.22,0,0,0,0,0-.01v-5.45c-.03-.13.06-.26.19-.28.13-.03.26.06.28.19,0,.03,0,.07,0,.1v5.45c0,.13-.1.23-.23.23h0Z"/>
        <path class="cls-5" d="m78.75,271.47c-.13,0-.23-.09-.24-.22,0,0,0,0,0-.01v-5.45c0-.13.11-.24.24-.24.13,0,.24.11.24.24v5.45c0,.13-.1.23-.23.23,0,0,0,0-.01,0Z"/>
        <path class="cls-5" d="m81.27,271.47c-.13,0-.23-.09-.24-.22,0,0,0,0,0-.01v-5.45c-.03-.13.06-.26.19-.28.13-.03.26.06.28.19,0,.03,0,.07,0,.1v5.45c0,.13-.1.23-.23.23h0Z"/>
        <path class="cls-5" d="m83.78,271.47c-.13,0-.23-.09-.24-.22,0,0,0,0,0-.01v-5.45c0-.13.11-.24.24-.24.13,0,.24.11.24.24v5.45c0,.13-.1.23-.23.23,0,0,0,0-.01,0Z"/>
        <path class="cls-5" d="m86.3,271.47c-.13,0-.23-.09-.24-.22,0,0,0,0,0-.01v-5.45c0-.13.11-.24.24-.24.13,0,.24.11.24.24h0v5.45c0,.13-.1.23-.23.23,0,0,0,0-.01,0Z"/>
        <path class="cls-5" d="m88.81,271.47c-.13,0-.23-.09-.24-.22,0,0,0,0,0-.01v-5.45c0-.13.11-.24.24-.24.13,0,.24.11.24.24v5.45c0,.13-.1.23-.23.23,0,0,0,0-.01,0Z"/>
        <path class="cls-5" d="m91.33,271.47c-.13,0-.23-.09-.24-.22,0,0,0,0,0-.01v-5.45c0-.13.11-.24.24-.24.13,0,.24.11.24.24h0v5.45c0,.13-.1.23-.23.23,0,0,0,0-.01,0Z"/>
        <path class="cls-5" d="m93.84,271.47c-.13,0-.23-.1-.23-.23h0v-5.45c0-.13.09-.23.22-.24,0,0,0,0,.01,0,.13,0,.24.11.24.24v5.45c0,.13-.1.23-.23.23,0,0,0,0-.01,0Z"/>
        <path class="cls-5" d="m96.36,271.47c-.13,0-.23-.09-.24-.22,0,0,0,0,0-.01v-5.45c0-.13.11-.24.24-.24.13,0,.24.11.24.24h0v5.45c0,.13-.1.23-.23.23,0,0,0,0-.01,0Z"/>
        <path class="cls-5" d="m98.87,271.47c-.13,0-.23-.1-.23-.23h0v-5.45c-.03-.13.06-.26.19-.28.13-.03.26.06.28.19,0,.03,0,.07,0,.1v5.45c0,.13-.1.23-.23.23,0,0,0,0-.01,0Z"/>
        <path class="cls-5" d="m101.39,271.47c-.13,0-.23-.09-.24-.22,0,0,0,0,0-.01v-5.45c0-.13.11-.24.24-.24.13,0,.24.11.24.24h0v5.45c0,.13-.1.23-.23.23,0,0,0,0-.01,0Z"/>
        <path class="cls-5" d="m103.9,271.47c-.13,0-.23-.1-.23-.23h0v-5.45c-.03-.13.06-.26.19-.28.13-.03.26.06.28.19,0,.03,0,.07,0,.1v5.45c0,.13-.1.23-.23.23,0,0,0,0-.01,0Z"/>
        <path class="cls-5" d="m106.42,271.47c-.13,0-.23-.09-.24-.22,0,0,0,0,0-.01v-5.45c0-.13.11-.24.24-.24.13,0,.24.11.24.24h0v5.45c0,.13-.1.23-.23.23,0,0,0,0-.01,0Z"/>
        <path class="cls-5" d="m108.94,271.47c-.13,0-.23-.09-.24-.22,0,0,0,0,0-.01v-5.45c-.03-.13.06-.26.19-.28.13-.03.26.06.28.19,0,.03,0,.07,0,.1v5.45c0,.13-.1.23-.23.23h0Z"/>
        <path class="cls-5" d="m111.45,271.47c-.13,0-.23-.09-.24-.22,0,0,0,0,0-.01v-5.45c0-.13.11-.24.24-.24.13,0,.24.11.24.24v5.45c0,.13-.1.23-.23.23,0,0,0,0-.01,0Z"/>
        <path class="cls-5" d="m113.97,271.47c-.13,0-.23-.09-.24-.22,0,0,0,0,0-.01v-5.45c-.03-.13.06-.26.19-.28.13-.03.26.06.28.19,0,.03,0,.07,0,.1v5.45c0,.13-.1.23-.23.23h0Z"/>
      </g>
      <path class="cls-14" d="m114.64,258.62v4.57c0,.71-.48,1.33-1.17,1.5-.13.01-.25.01-.38,0h-47.58c-.05.01-.11.01-.16,0-.16-.04-.31-.11-.45-.2-.15-.09-.28-.22-.37-.37h0s-.01-.05,0-.08h0s0-.03,0-.05v-.06s0-.05,0-.08h0s0-.03,0-.05v-.06s0-.07,0-.11h0c0-.07,0-.14,0-.21v-4.62c0-.41.16-.8.45-1.08.23-.22.52-.37.84-.43h0c.07-.01.13-.01.2,0h47.35c.07-.01.14-.01.21,0h.11l.28.09h.07c.06.02.11.06.16.1h0c.07.04.13.08.18.14.02.03.04.05.07.07.04.04.07.08.1.13.03.05.07.1.11.14.03.05.06.11.08.17,0,.02,0,.03,0,.05.03.05.05.1.06.16-.04.1-.1.19-.16.28Z"/>
      <path class="cls-7" d="m114.64,258.62v4.57c0,.71-.48,1.33-1.17,1.5-.13.01-.25.01-.38,0h-47.58c-.05.01-.11.01-.16,0-.16-.04-.31-.11-.45-.2-.15-.09-.28-.22-.37-.37h0l-.08-.13s-.05-.07-.06-.11c0-.03,0-.05,0-.08h0s0-.07,0-.11c0-.04,0-.07,0-.11h0c0-.07,0-.14,0-.21v-4.62c0-.41.16-.8.45-1.08.22-.22.5-.37.81-.43h0c.08,0,.17,0,.25,0h47.67c.1.02.19.05.28.09.02,0,.05,0,.07,0,.07.02.13.06.18.1h0c.07.04.13.08.18.14.02.03.04.05.07.07.04.04.07.08.1.13.03.05.07.1.11.14.03.05.06.11.08.17,0,.02,0,.03,0,.05.03.05.05.1.06.16,0,.11-.03.22-.06.33Z"/>
      <path class="cls-11" d="m113.94,257.36h-37.5c-.52,0-.94.41-.95.93,0,0,0,0,0,.01v5c0,.46-.38.83-.84.84h-10.09s-.05-.08-.07-.12h0s0-.03,0-.05c-.02-.04-.04-.09-.06-.14h0s0-.03,0-.05c-.02-.05-.04-.11-.05-.17h0c0-.07,0-.14,0-.21v-4.62c0-.41.16-.8.45-1.08.22-.22.5-.37.81-.43h0c.08,0,.17,0,.25,0h47.67c.1.02.19.05.28.09.02,0,.05,0,.07,0,.01,0,.02,0,.03,0Z"/>
      <path class="cls-18" d="m114.64,258.62v4.57c0,.71-.48,1.33-1.17,1.5-.13.01-.25.01-.38,0h-47.58c-.05.01-.11.01-.16,0-.16-.04-.31-.11-.45-.2h37.5c.52,0,.94-.42.94-.94,0,0,0,0,0-.01v-5c0-.47.38-.84.85-.85h10.12s.07.1.11.14c.03.05.06.11.08.17,0,.02,0,.03,0,.05.03.05.05.1.06.16.05.13.07.27.08.41Z"/>
      <g class="cls-20">
        <path class="cls-5" d="m66.78,263.86c-.13,0-.23-.09-.24-.22,0,0,0,0,0-.01v-5.45c0-.13.11-.24.24-.24.13,0,.24.11.24.24v5.45c0,.13-.1.23-.23.23,0,0,0,0-.01,0Z"/>
        <path class="cls-5" d="m69.3,263.86c-.13,0-.23-.09-.24-.22,0,0,0,0,0-.01v-5.45c0-.13.11-.24.24-.24.13,0,.24.11.24.24h0v5.45c0,.13-.1.23-.23.23,0,0,0,0-.01,0Z"/>
        <path class="cls-5" d="m71.81,263.86c-.13,0-.23-.09-.24-.22,0,0,0,0,0-.01v-5.45c0-.13.11-.24.24-.24.13,0,.24.11.24.24h0v5.45c0,.13-.1.23-.23.23,0,0,0,0-.01,0Z"/>
        <path class="cls-5" d="m74.33,263.86c-.13,0-.23-.09-.24-.22,0,0,0,0,0-.01v-5.45c0-.13.11-.24.24-.24.13,0,.24.11.24.24h0v5.45c0,.13-.1.23-.23.23,0,0,0,0-.01,0Z"/>
        <path class="cls-5" d="m76.84,263.86c-.13,0-.23-.1-.23-.23h0v-5.45c-.03-.13.06-.26.19-.28.13-.03.26.06.28.19,0,.03,0,.07,0,.1v5.45c0,.13-.1.23-.23.23,0,0,0,0-.01,0Z"/>
        <path class="cls-5" d="m79.36,263.86c-.13,0-.23-.09-.24-.22,0,0,0,0,0-.01v-5.45c0-.13.11-.24.24-.24.13,0,.24.11.24.24h0v5.45c0,.13-.1.23-.23.23,0,0,0,0-.01,0Z"/>
        <path class="cls-5" d="m81.87,263.86c-.13,0-.23-.1-.23-.23h0v-5.45c-.03-.13.06-.26.19-.28.13-.03.26.06.28.19,0,.03,0,.07,0,.1v5.45c0,.13-.1.23-.23.23,0,0,0,0-.01,0Z"/>
        <path class="cls-5" d="m84.39,263.86c-.13,0-.23-.09-.24-.22,0,0,0,0,0-.01v-5.45c0-.13.11-.24.24-.24.13,0,.24.11.24.24h0v5.45c0,.13-.1.23-.23.23,0,0,0,0-.01,0Z"/>
        <path class="cls-5" d="m86.91,263.86c-.13,0-.23-.09-.24-.22,0,0,0,0,0-.01v-5.45c-.03-.13.06-.26.19-.28.13-.03.26.06.28.19,0,.03,0,.07,0,.1v5.45c0,.13-.1.23-.23.23h0Z"/>
        <path class="cls-5" d="m89.42,263.86c-.13,0-.23-.09-.24-.22,0,0,0,0,0-.01v-5.45c0-.13.11-.24.24-.24.13,0,.24.11.24.24h0v5.45c0,.13-.1.23-.23.23,0,0,0,0-.01,0Z"/>
        <path class="cls-5" d="m91.94,263.86c-.13,0-.23-.09-.24-.22,0,0,0,0,0-.01v-5.45c-.03-.13.06-.26.19-.28.13-.03.26.06.28.19,0,.03,0,.07,0,.1v5.45c0,.13-.1.23-.23.23h0Z"/>
        <path class="cls-5" d="m94.45,263.86c-.13,0-.23-.09-.24-.22,0,0,0,0,0-.01v-5.45c0-.13.11-.24.24-.24.13,0,.24.11.24.24v5.45c0,.13-.1.23-.23.23,0,0,0,0-.01,0Z"/>
        <path class="cls-5" d="m96.97,263.86c-.13,0-.23-.09-.24-.22,0,0,0,0,0-.01v-5.45c-.03-.13.06-.26.19-.28.13-.03.26.06.28.19,0,.03,0,.07,0,.1v5.45c0,.13-.1.23-.23.23h0Z"/>
        <path class="cls-5" d="m99.48,263.86c-.13,0-.23-.09-.24-.22,0,0,0,0,0-.01v-5.45c0-.13.11-.24.24-.24.13,0,.24.11.24.24v5.45c0,.13-.1.23-.23.23,0,0,0,0-.01,0Z"/>
        <path class="cls-5" d="m102,263.86c-.13,0-.23-.09-.24-.22,0,0,0,0,0-.01v-5.45c0-.13.11-.24.24-.24.13,0,.24.11.24.24v5.45c0,.13-.1.23-.23.23,0,0,0,0-.01,0Z"/>
        <path class="cls-5" d="m104.56,263.86c-.13,0-.23-.09-.24-.22,0,0,0,0,0-.01v-5.45c0-.13.11-.24.24-.24.13,0,.24.11.24.24v5.45c0,.13-.1.23-.23.23,0,0,0,0-.01,0Z"/>
        <path class="cls-5" d="m107.03,263.86c-.13,0-.23-.09-.24-.22,0,0,0,0,0-.01v-5.45c0-.13.11-.24.24-.24.13,0,.24.11.24.24v5.45c0,.13-.1.23-.23.23,0,0,0,0-.01,0Z"/>
        <path class="cls-5" d="m109.56,263.86c-.13,0-.23-.09-.24-.22,0,0,0,0,0-.01v-5.45c0-.13.11-.24.24-.24.13,0,.24.11.24.24v5.45c0,.13-.1.23-.23.23,0,0,0,0-.01,0Z"/>
        <path class="cls-5" d="m112.06,263.86c-.13,0-.23-.09-.24-.22,0,0,0,0,0-.01v-5.45c0-.13.11-.24.24-.24.13,0,.24.11.24.24h0v5.45c0,.13-.1.23-.23.23,0,0,0,0-.01,0Z"/>
      </g>
      <path class="cls-14" d="m114.64,251.02v4.56c0,.41-.16.8-.45,1.09-.23.22-.52.37-.84.43h0c-.07.01-.14.01-.21,0h-47.4c-.07.01-.13.01-.2,0h-.11c-.1-.02-.2-.06-.29-.1-.08-.02-.16-.06-.22-.12h0c-.08-.05-.15-.1-.21-.16-.06-.05-.11-.11-.14-.18h0s0-.03,0-.05c-.04-.05-.07-.11-.09-.17-.02-.04-.04-.08-.05-.12,0-.06,0-.11,0-.17v-.08c0-.08,0-.17,0-.25v-4.57c0-.85.69-1.54,1.54-1.54h47.85l.25.13c.07.05.13.1.19.16l.08.07s.07.08.1.13c.04.05.08.11.11.17.03.03.05.06.06.1l.06.14s0,.05,0,.07c.03.06.04.12.05.18-.02.1-.04.19-.08.28Z"/>
      <path class="cls-7" d="m114.64,251.02v4.56c0,.41-.16.8-.45,1.09-.22.22-.5.37-.81.43h-47.64c-.08,0-.17,0-.25,0h-.06c-.1-.02-.2-.06-.29-.1-.09-.03-.17-.07-.24-.12h0c-.08-.05-.15-.1-.21-.16-.06-.05-.11-.11-.14-.18h0l-.08-.12c-.04-.07-.07-.14-.09-.22,0-.06,0-.11,0-.17v-.08c0-.08,0-.17,0-.25v-4.57c0-.85.69-1.54,1.54-1.54h47.72-.08.05l.25.13c.07.05.13.1.19.16l.08.07s.07.08.1.13c.04.05.08.11.11.17.03.03.05.06.06.1l.06.14s0,.05,0,.07c.03.06.04.12.05.18.05.09.1.18.13.28Z"/>
      <path class="cls-11" d="m113.94,249.72h-37.5c-.52,0-.94.41-.95.93,0,0,0,.01,0,.02v5c0,.47-.37.84-.84.85h-10.09s-.04-.06-.06-.09l-.05-.07s0-.07,0-.1c-.02-.04-.04-.08-.05-.12,0-.06,0-.11,0-.17v-.08c0-.08,0-.17,0-.25v-4.57c0-.85.69-1.54,1.54-1.54h47.72-.1.06l.32.19Z"/>
      <path class="cls-18" d="m114.64,251.02v4.56c0,.41-.16.8-.45,1.09-.22.22-.5.37-.81.43h-47.64c-.08,0-.17,0-.25,0h-.06c-.1-.02-.2-.06-.29-.1-.09-.03-.17-.07-.24-.12h37.5c.52,0,.94-.42.94-.94h0v-5c0-.47.38-.84.85-.85h10.12c.04.05.08.11.11.17.03.03.05.06.06.1l.06.14s0,.05,0,.07c.03.06.04.12.05.18.03.09.04.18.05.27Z"/>
      <g class="cls-20">
        <path class="cls-5" d="m66.78,256.26c-.13,0-.24-.11-.24-.24v-5.45c0-.13.11-.24.24-.24.13,0,.24.11.24.24v5.45c0,.13-.11.24-.24.24Z"/>
        <path class="cls-5" d="m69.3,256.26c-.13,0-.24-.11-.24-.24v-5.45c0-.13.11-.24.24-.24.13,0,.24.11.24.24h0v5.45c0,.13-.11.24-.24.24Z"/>
        <path class="cls-5" d="m71.81,256.26c-.13,0-.24-.11-.24-.24v-5.45c0-.13.11-.24.24-.24.13,0,.24.11.24.24v5.45c0,.13-.11.24-.24.24Z"/>
        <path class="cls-5" d="m74.33,256.26c-.13,0-.24-.11-.24-.24v-5.45c0-.13.11-.24.24-.24.13,0,.24.11.24.24h0v5.45c0,.13-.11.24-.24.24Z"/>
        <path class="cls-5" d="m76.84,256.26c-.13,0-.23-.1-.23-.23,0,0,0,0,0-.01v-5.45c-.03-.13.06-.26.19-.28.13-.03.26.06.28.19,0,.03,0,.07,0,.1v5.45c0,.13-.11.24-.24.24Z"/>
        <path class="cls-5" d="m79.36,256.26c-.13,0-.24-.11-.24-.24v-5.45c0-.13.11-.24.24-.24.13,0,.24.11.24.24h0v5.45c0,.13-.11.24-.24.24Z"/>
        <path class="cls-5" d="m81.87,256.26c-.13,0-.23-.1-.23-.23,0,0,0,0,0-.01v-5.45c-.03-.13.06-.26.19-.28.13-.03.26.06.28.19,0,.03,0,.07,0,.1v5.45c0,.13-.11.24-.24.24Z"/>
        <path class="cls-5" d="m84.39,256.26c-.13,0-.24-.11-.24-.24v-5.45c0-.13.11-.24.24-.24.13,0,.24.11.24.24h0v5.45c0,.13-.11.24-.24.24Z"/>
        <path class="cls-5" d="m86.91,256.26c-.13,0-.24-.11-.24-.24v-5.45c-.03-.13.06-.26.19-.28.13-.03.26.06.28.19,0,.03,0,.07,0,.1v5.45c0,.13-.09.23-.22.24,0,0,0,0-.01,0Z"/>
        <path class="cls-5" d="m89.42,256.26c-.13,0-.24-.11-.24-.24v-5.45c0-.13.11-.24.24-.24.13,0,.24.11.24.24h0v5.45c0,.13-.11.24-.24.24Z"/>
        <path class="cls-5" d="m91.94,256.26c-.13,0-.24-.11-.24-.24v-5.45c-.03-.13.06-.26.19-.28.13-.03.26.06.28.19,0,.03,0,.07,0,.1v5.45c0,.13-.09.23-.22.24,0,0,0,0-.01,0Z"/>
        <path class="cls-5" d="m94.45,256.26c-.13,0-.24-.11-.24-.24v-5.45c0-.13.11-.24.24-.24.13,0,.24.11.24.24v5.45c0,.13-.11.24-.24.24Z"/>
        <path class="cls-5" d="m96.97,256.26c-.13,0-.24-.11-.24-.24v-5.45c-.03-.13.06-.26.19-.28.13-.03.26.06.28.19,0,.03,0,.07,0,.1v5.45c0,.13-.09.23-.22.24,0,0,0,0-.01,0Z"/>
        <path class="cls-5" d="m99.48,256.26c-.13,0-.24-.11-.24-.24v-5.45c0-.13.11-.24.24-.24.13,0,.24.11.24.24v5.45c0,.13-.11.24-.24.24Z"/>
        <path class="cls-5" d="m102,256.26c-.13,0-.24-.11-.24-.24v-5.45c0-.13.11-.24.24-.24.13,0,.24.11.24.24v5.45c0,.13-.11.24-.24.24Z"/>
        <path class="cls-5" d="m104.56,256.26c-.13,0-.24-.11-.24-.24v-5.45c0-.13.11-.24.24-.24.13,0,.24.11.24.24v5.45c0,.13-.11.24-.24.24Z"/>
        <path class="cls-5" d="m107.03,256.26c-.13,0-.24-.11-.24-.24v-5.45c0-.13.11-.24.24-.24.13,0,.24.11.24.24v5.45c0,.13-.11.24-.24.24Z"/>
        <path class="cls-5" d="m109.56,256.26c-.13,0-.24-.11-.24-.24v-5.45c0-.13.11-.24.24-.24.13,0,.24.11.24.24v5.45c0,.13-.11.24-.24.24Z"/>
        <path class="cls-5" d="m112.06,256.26c-.13,0-.24-.11-.24-.24v-5.45c0-.13.11-.24.24-.24.13,0,.24.11.24.24v5.45c0,.13-.11.24-.24.24Z"/>
      </g>
      <path class="cls-14" d="m118.46,243.36v4.57c0,.85-.7,1.54-1.55,1.54h-47.71c-.17-.04-.33-.11-.47-.21h0c-.08-.06-.16-.13-.24-.2-.05-.05-.1-.1-.13-.17h0v-.05h0s-.07-.1-.09-.16c-.03-.05-.05-.1-.06-.16h0v-.06s0-.07,0-.11h0c0-.07,0-.14,0-.21v-4.78c0-.3.09-.6.27-.85.05-.08.12-.16.19-.23.2-.2.45-.34.72-.4.12-.03.25-.05.37-.05h47.71l.25.08h0c.06.02.12.06.17.1h0c.07.03.14.08.19.14.01.03.03.05.06.07.04.04.08.08.11.13l.12.17s0,.05,0,.07c.03.06.06.12.07.19.04.08.06.16.07.25,0,.11-.02.22-.05.33Z"/>
      <path class="cls-7" d="m118.45,243.36v4.57c0,.41-.16.8-.45,1.09-.29.29-.68.45-1.09.45h-47.71c-.17-.04-.33-.11-.47-.21h0c-.08-.06-.16-.13-.24-.2-.05-.05-.1-.1-.13-.17h0v-.05l-.07-.1s0-.07,0-.1c-.03-.05-.05-.1-.06-.16,0-.03,0-.06,0-.09,0-.04,0-.07,0-.11h0c0-.07,0-.14,0-.21v-4.71c0-.3.09-.6.27-.85.05-.08.12-.16.19-.23.18-.2.42-.34.69-.4.13-.04.26-.06.4-.06h47.71l.25.08h0c.07.02.13.06.18.1h0c.07.03.14.08.19.14.01.03.03.05.06.07.04.04.08.08.11.13l.12.17s0,.05,0,.07c.03.06.06.12.07.19.03.08.05.16.07.25-.02.12-.05.23-.09.34Z"/>
      <path class="cls-11" d="m117.75,242.11h-37.5c-.52,0-.94.42-.94.94h0v5c0,.47-.38.84-.85.84h-10.12v-.05h0l-.05-.06s0-.07,0-.1c-.03-.05-.05-.1-.06-.16h0c-.02-.05-.04-.11-.05-.17h0c0-.07,0-.14,0-.21v-4.78c0-.3.09-.6.27-.85.05-.08.12-.16.19-.23.18-.2.42-.34.69-.4.13-.04.26-.06.4-.06h47.71l.25.08h0c.03.07.05.14.06.21Z"/>
      <path class="cls-18" d="m118.45,243.36v4.57c0,.41-.16.8-.45,1.09-.29.29-.68.45-1.09.45h-47.71c-.17-.04-.33-.11-.47-.21h37.49c.52,0,.94-.41.95-.93,0,0,0-.01,0-.02v-5c0-.47.37-.84.84-.85h10.13l.12.17s0,.05,0,.07c.03.06.06.12.07.19.03.08.05.16.07.25.02.07.04.15.05.22Z"/>
      <g class="cls-20">
        <path class="cls-5" d="m70.56,248.65c-.13,0-.24-.11-.24-.24v-5.45c0-.13.11-.24.24-.24.13,0,.24.11.24.24v5.45c0,.13-.11.24-.24.24Z"/>
        <path class="cls-5" d="m73.11,248.65c-.13,0-.24-.11-.24-.24v-5.45c0-.13.11-.24.24-.24.13,0,.24.11.24.24h0v5.45c0,.13-.11.24-.24.24Z"/>
        <path class="cls-5" d="m75.63,248.65c-.13,0-.24-.11-.24-.24v-5.45c0-.13.11-.24.24-.24.13,0,.24.11.24.24v5.45c0,.13-.11.24-.24.24Z"/>
        <path class="cls-5" d="m78.14,248.65c-.13,0-.24-.11-.24-.24v-5.45c0-.13.11-.24.24-.24.13,0,.24.11.24.24h0v5.45c0,.13-.11.24-.24.24Z"/>
        <path class="cls-5" d="m80.66,248.65c-.13,0-.24-.11-.24-.24v-5.45c0-.13.11-.24.24-.24.13,0,.24.11.24.24v5.45c0,.13-.11.24-.24.24Z"/>
        <path class="cls-5" d="m83.17,248.65c-.13,0-.23-.1-.23-.23,0,0,0,0,0-.01v-5.45c-.03-.13.06-.26.19-.28.13-.03.26.06.28.19,0,.03,0,.07,0,.1v5.45c0,.13-.11.24-.24.24Z"/>
        <path class="cls-5" d="m85.69,248.65c-.13,0-.24-.11-.24-.24v-5.45c0-.13.11-.24.24-.24.13,0,.24.11.24.24v5.45c0,.13-.11.24-.24.24Z"/>
        <path class="cls-5" d="m88.2,248.65c-.13,0-.23-.1-.23-.23,0,0,0,0,0-.01v-5.45c-.03-.13.06-.26.19-.28.13-.03.26.06.28.19,0,.03,0,.07,0,.1v5.45c0,.13-.11.24-.24.24Z"/>
        <path class="cls-5" d="m90.72,248.65c-.13,0-.24-.11-.24-.24v-5.45c0-.13.11-.24.24-.24.13,0,.24.11.24.24v5.45c0,.13-.11.24-.24.24Z"/>
        <path class="cls-5" d="m93.24,248.65c-.13,0-.24-.11-.24-.24v-5.45c-.03-.13.06-.26.19-.28.13-.03.26.06.28.19,0,.03,0,.07,0,.1v5.45c0,.13-.09.23-.22.24,0,0,0,0-.01,0Z"/>
        <path class="cls-5" d="m95.75,248.65c-.13,0-.24-.11-.24-.24v-5.45c0-.13.11-.24.24-.24.13,0,.24.11.24.24v5.45c0,.13-.11.24-.24.24Z"/>
        <path class="cls-5" d="m98.27,248.65c-.13,0-.24-.11-.24-.24v-5.45c-.03-.13.06-.26.19-.28.13-.03.26.06.28.19,0,.03,0,.07,0,.1v5.45c0,.13-.09.23-.22.24,0,0,0,0-.01,0Z"/>
        <path class="cls-5" d="m100.78,248.65c-.13,0-.24-.11-.24-.24v-5.45c0-.13.11-.24.24-.24.13,0,.24.11.24.24v5.45c0,.13-.11.24-.24.24Z"/>
        <path class="cls-5" d="m103.3,248.65c-.13,0-.24-.11-.24-.24v-5.45c-.03-.13.06-.26.19-.28.13-.03.26.06.28.19,0,.03,0,.07,0,.1v5.45c0,.13-.09.23-.22.24,0,0,0,0-.01,0Z"/>
        <path class="cls-5" d="m105.81,248.65c-.13,0-.24-.11-.24-.24v-5.45c0-.13.11-.24.24-.24.13,0,.24.11.24.24v5.45c0,.13-.11.24-.24.24Z"/>
        <path class="cls-5" d="m108.33,248.65c-.13,0-.24-.11-.24-.24v-5.45c0-.13.11-.24.24-.24.13,0,.24.11.24.24h0v5.45c0,.13-.11.24-.24.24Z"/>
        <path class="cls-5" d="m110.84,248.65c-.13,0-.24-.11-.24-.24v-5.45c0-.13.11-.24.24-.24.13,0,.24.11.24.24v5.45c0,.13-.11.24-.24.24Z"/>
        <path class="cls-5" d="m113.36,248.65c-.13,0-.24-.11-.24-.24v-5.45c0-.13.11-.24.24-.24.13,0,.24.11.24.24h0v5.45c0,.13-.11.24-.24.24Z"/>
        <path class="cls-5" d="m115.87,248.65c-.13,0-.23-.1-.23-.23,0,0,0,0,0-.01v-5.45c-.03-.13.06-.26.19-.28.13-.03.26.06.28.19,0,.03,0,.07,0,.1v5.45c0,.13-.11.24-.24.24Z"/>
      </g>
      <path class="cls-14" d="m116.56,235.79v4.57c0,.21-.04.41-.12.6h0c-.07.19-.18.35-.32.49-.19.19-.44.33-.7.4h0c-.12.03-.25.05-.37.05h-47.79c-.16-.04-.32-.11-.46-.2-.14-.1-.27-.22-.37-.36v-.05h0c-.05-.06-.09-.12-.11-.2-.02-.03-.04-.06-.05-.1,0-.06,0-.11,0-.17v-.08c0-.08,0-.17,0-.25v-4.57c0-.85.68-1.54,1.53-1.55,0,0,0,0,.01,0h47.75s.05-.01.07,0h-.07l.25.13.19.15.08.08c.1.09.18.2.23.32h0c0,.07.07.15.09.21.09.16.15.34.16.53Z"/>
      <path class="cls-7" d="m116.56,235.8v4.56c0,.2-.03.4-.11.59h0c-.08.18-.19.35-.32.49-.19.19-.44.33-.7.4h0c-.12.03-.25.05-.37.05h-47.8c-.16-.04-.32-.11-.46-.2-.14-.1-.27-.22-.37-.36v-.05h0l-.06-.09h0c-.04-.07-.08-.15-.1-.23,0-.06,0-.11,0-.17v-.08c0-.08,0-.17,0-.25v-4.57c0-.85.68-1.54,1.53-1.55,0,0,0,0,.01,0h47.83l.25.13.19.15.08.08s.06.09.1.13c.05.06.09.12.13.19h0c0,.07.07.15.09.21.06.18.09.38.08.57Z"/>
      <path class="cls-11" d="m115.85,234.5h-37.51c-.52,0-.94.42-.94.94,0,0,0,0,0,.01v5c0,.47-.38.85-.85.85h-10.12v-.05h0v-.05h0s0-.09,0-.13c-.02-.03-.04-.06-.05-.1,0-.06,0-.11,0-.17v-.08c0-.08,0-.17,0-.25v-4.57c0-.85.68-1.54,1.53-1.55,0,0,0,0,.01,0h47.85l.08.15Z"/>
      <path class="cls-18" d="m116.56,235.8v4.56c0,.2-.03.4-.11.59h0c-.08.18-.19.35-.32.49-.19.19-.44.33-.7.4h0c-.12.03-.25.05-.37.05h-47.8c-.16-.04-.32-.11-.46-.2h37.51c.52,0,.94-.42.94-.94h0v-5c0-.47.38-.84.85-.85h10.12c.05.06.09.12.13.19h0c0,.07.07.15.09.21.07.16.11.33.12.5Z"/>
      <g class="cls-20">
        <path class="cls-5" d="m68.69,241.04c-.13,0-.24-.11-.24-.24v-5.44c0-.13.11-.24.24-.24.13,0,.24.11.24.24v5.45c0,.13-.11.23-.24.23Z"/>
        <path class="cls-5" d="m71.21,241.04c-.13,0-.24-.11-.24-.24v-5.44c-.03-.13.06-.26.19-.28.13-.03.26.06.28.19,0,.03,0,.07,0,.1v5.45c0,.13-.1.23-.23.23Z"/>
        <path class="cls-5" d="m73.72,241.04c-.13,0-.24-.11-.24-.24v-5.44c0-.13.11-.24.24-.24.13,0,.24.11.24.24v5.45c0,.13-.11.23-.24.23Z"/>
        <path class="cls-5" d="m76.24,241.04c-.13,0-.24-.11-.24-.24v-5.44c-.03-.13.06-.26.19-.28.13-.03.26.06.28.19,0,.03,0,.07,0,.1v5.45c0,.13-.1.23-.23.23Z"/>
        <path class="cls-5" d="m78.75,241.04c-.13,0-.24-.11-.24-.24v-5.44c0-.13.11-.24.24-.24.13,0,.24.11.24.24v5.45c0,.13-.11.23-.24.23Z"/>
        <path class="cls-5" d="m81.27,241.04c-.13,0-.24-.11-.24-.24v-5.44c-.03-.13.06-.26.19-.28.13-.03.26.06.28.19,0,.03,0,.07,0,.1v5.45c0,.13-.1.23-.23.23Z"/>
        <path class="cls-5" d="m83.78,241.04c-.13,0-.24-.11-.24-.24v-5.44c0-.13.11-.24.24-.24.13,0,.24.11.24.24v5.45c0,.13-.11.23-.24.23Z"/>
        <path class="cls-5" d="m86.3,241.04c-.13,0-.24-.11-.24-.24v-5.44c0-.13.11-.24.24-.24.13,0,.24.11.24.24h0v5.45c0,.13-.11.23-.24.23Z"/>
        <path class="cls-5" d="m88.81,241.04c-.13,0-.24-.11-.24-.24v-5.44c0-.13.11-.24.24-.24.13,0,.24.11.24.24v5.45c0,.13-.11.23-.24.23Z"/>
        <path class="cls-5" d="m91.33,241.04c-.13,0-.24-.11-.24-.24v-5.44c0-.13.11-.24.24-.24.13,0,.24.11.24.24h0v5.45c0,.13-.11.23-.24.23Z"/>
        <path class="cls-5" d="m93.84,241.04c-.13,0-.23-.1-.23-.23,0,0,0,0,0-.01v-5.44c0-.13.09-.23.22-.24,0,0,0,0,.01,0,.13,0,.24.11.24.24v5.45c0,.13-.11.23-.24.23Z"/>
        <path class="cls-5" d="m96.36,241.04c-.13,0-.24-.11-.24-.24v-5.44c0-.13.11-.24.24-.24.13,0,.24.11.24.24h0v5.45c0,.13-.11.23-.24.23Z"/>
        <path class="cls-5" d="m98.87,241.04c-.13,0-.23-.1-.23-.23,0,0,0,0,0-.01v-5.44c-.03-.13.06-.26.19-.28.13-.03.26.06.28.19,0,.03,0,.07,0,.1v5.45c0,.13-.11.23-.24.23Z"/>
        <path class="cls-5" d="m101.39,241.04c-.13,0-.24-.11-.24-.24v-5.44c0-.13.11-.24.24-.24.13,0,.24.11.24.24h0v5.45c0,.13-.11.23-.24.23Z"/>
        <path class="cls-5" d="m103.9,241.04c-.13,0-.23-.1-.23-.23,0,0,0,0,0-.01v-5.44c-.03-.13.06-.26.19-.28.13-.03.26.06.28.19,0,.03,0,.07,0,.1v5.45c0,.13-.11.23-.24.23Z"/>
        <path class="cls-5" d="m106.42,241.04c-.13,0-.24-.11-.24-.24v-5.44c0-.13.11-.24.24-.24.13,0,.24.11.24.24h0v5.45c0,.13-.11.23-.24.23Z"/>
        <path class="cls-5" d="m108.94,241.04c-.13,0-.24-.11-.24-.24v-5.44c-.03-.13.06-.26.19-.28.13-.03.26.06.28.19,0,.03,0,.07,0,.1v5.45c0,.13-.1.23-.23.23Z"/>
        <path class="cls-5" d="m111.45,241.04c-.13,0-.24-.11-.24-.24v-5.44c0-.13.11-.24.24-.24.13,0,.24.11.24.24v5.45c0,.13-.11.23-.24.23Z"/>
        <path class="cls-5" d="m113.97,241.04c-.13,0-.24-.11-.24-.24v-5.44c-.03-.13.06-.26.19-.28.13-.03.26.06.28.19,0,.03,0,.07,0,.1v5.45c0,.13-.1.23-.23.23Z"/>
      </g>
      <rect class="cls-14" x="8.88" y="279.91" width="50.44" height="7.66" rx="1.55" ry="1.55"/>
      <path class="cls-7" d="m59.33,281.46v4.56c0,.85-.69,1.54-1.54,1.54,0,0,0,0-.01,0H10.43c-.3.02-.61-.05-.87-.2-.43-.29-.7-.77-.7-1.29v-4.61c0-.86.68-1.55,1.54-1.56h47.35c.48,0,.94.23,1.22.62.23.26.35.59.36.94Z"/>
      <path class="cls-11" d="m8.89,286.01v-4.56c0-.85.68-1.54,1.53-1.55,0,0,0,0,.01,0h47.35c.3,0,.6.09.85.26H21.12c-.52,0-.94.42-.94.94h0v5c0,.47-.38.84-.85.84h-10.12c-.21-.26-.33-.59-.32-.93Z"/>
      <path class="cls-18" d="m59.33,281.46v4.56c0,.85-.69,1.54-1.54,1.54,0,0,0,0-.01,0H10.43c-.3.02-.61-.05-.87-.2h37.5c.52,0,.94-.42.94-.94,0,0,0,0,0-.01v-5c0-.47.38-.85.85-.85h10.12c.22.25.35.57.36.9Z"/>
      <g class="cls-20">
        <path class="cls-5" d="m11.47,286.69c-.13,0-.23-.09-.24-.22,0,0,0,0,0-.01v-5.45c0-.13.11-.24.24-.24s.24.11.24.24v5.45c0,.13-.1.23-.23.23,0,0,0,0-.01,0Z"/>
        <path class="cls-5" d="m13.98,286.69c-.13,0-.23-.1-.23-.23h0v-5.45c-.03-.13.06-.26.19-.28.13-.03.26.06.28.19,0,.03,0,.07,0,.1v5.45c0,.13-.1.23-.23.23,0,0,0,0-.01,0Z"/>
        <path class="cls-5" d="m16.5,286.69c-.13,0-.23-.09-.24-.22,0,0,0,0,0-.01v-5.45c0-.13.11-.24.24-.24s.24.11.24.24v5.45c0,.13-.1.23-.23.23,0,0,0,0-.01,0Z"/>
        <path class="cls-5" d="m19.01,286.69c-.13,0-.23-.1-.23-.23h0v-5.45c-.03-.13.06-.26.19-.28.13-.03.26.06.28.19,0,.03,0,.07,0,.1v5.45c0,.13-.1.23-.23.23,0,0,0,0-.01,0Z"/>
        <path class="cls-5" d="m21.56,286.69c-.13,0-.23-.09-.24-.22,0,0,0,0,0-.01v-5.45c0-.13.11-.24.24-.24s.24.11.24.24v5.45c0,.13-.1.23-.23.23,0,0,0,0-.01,0Z"/>
        <path class="cls-5" d="m24.05,286.69c-.13,0-.23-.09-.24-.22,0,0,0,0,0-.01v-5.45c-.03-.13.06-.26.19-.28.13-.03.26.06.28.19,0,.03,0,.07,0,.1v5.45c0,.13-.1.23-.23.23h0Z"/>
        <path class="cls-5" d="m26.56,286.69c-.13,0-.23-.09-.24-.22,0,0,0,0,0-.01v-5.45c0-.13.11-.24.24-.24s.24.11.24.24v5.45c0,.13-.1.23-.23.23,0,0,0,0-.01,0Z"/>
        <path class="cls-5" d="m29.08,286.69c-.13,0-.23-.09-.24-.22,0,0,0,0,0-.01v-5.45c-.03-.13.06-.26.19-.28.13-.03.26.06.28.19,0,.03,0,.07,0,.1v5.45c0,.13-.1.23-.23.23h0Z"/>
        <path class="cls-5" d="m31.56,286.69c-.13,0-.23-.09-.24-.22,0,0,0,0,0-.01v-5.45c0-.13.11-.24.24-.24s.24.11.24.24v5.45c0,.13-.1.23-.23.23,0,0,0,0-.01,0Z"/>
        <path class="cls-5" d="m34.11,286.69c-.13,0-.23-.09-.24-.22,0,0,0,0,0-.01v-5.45c-.03-.13.06-.26.19-.28.13-.03.26.06.28.19,0,.03,0,.07,0,.1v5.45c0,.13-.1.23-.23.23h0Z"/>
        <path class="cls-5" d="m36.62,286.69c-.13,0-.23-.09-.24-.22,0,0,0,0,0-.01v-5.45c0-.13.11-.24.24-.24s.24.11.24.24v5.45c0,.13-.1.23-.23.23,0,0,0,0-.01,0Z"/>
        <path class="cls-5" d="m39.14,286.69c-.13,0-.23-.09-.24-.22,0,0,0,0,0-.01v-5.45c0-.13.11-.24.24-.24s.24.11.24.24v5.45c0,.13-.1.23-.23.23,0,0,0,0-.01,0Z"/>
        <path class="cls-5" d="m41.65,286.69c-.13,0-.23-.09-.24-.22,0,0,0,0,0-.01v-5.45c0-.13.11-.24.24-.24s.24.11.24.24v5.45c0,.13-.1.23-.23.23,0,0,0,0-.01,0Z"/>
        <path class="cls-5" d="m44.17,286.69c-.13,0-.23-.09-.24-.22,0,0,0,0,0-.01v-5.45c0-.13.11-.24.24-.24s.24.11.24.24v5.45c0,.13-.1.23-.23.23,0,0,0,0-.01,0Z"/>
        <path class="cls-5" d="m46.68,286.69c-.13,0-.23-.1-.23-.23h0v-5.45c-.03-.13.06-.26.19-.28.13-.03.26.06.28.19,0,.03,0,.07,0,.1v5.45c0,.13-.1.23-.23.23,0,0,0,0-.01,0Z"/>
        <path class="cls-5" d="m49.2,286.69c-.13,0-.23-.09-.24-.22,0,0,0,0,0-.01v-5.45c0-.13.11-.24.24-.24s.24.11.24.24v5.45c0,.13-.1.23-.23.23,0,0,0,0-.01,0Z"/>
        <path class="cls-5" d="m51.71,286.69c-.13,0-.23-.1-.23-.23h0v-5.45c-.03-.13.06-.26.19-.28.13-.03.26.06.28.19,0,.03,0,.07,0,.1v5.45c0,.13-.1.23-.23.23,0,0,0,0-.01,0Z"/>
        <path class="cls-5" d="m54.23,286.69c-.13,0-.23-.09-.24-.22,0,0,0,0,0-.01v-5.45c0-.13.11-.24.24-.24s.24.11.24.24v5.45c0,.13-.1.23-.23.23,0,0,0,0-.01,0Z"/>
        <path class="cls-5" d="m56.74,286.69c-.13,0-.23-.1-.23-.23h0v-5.45c-.03-.13.06-.26.19-.28.13-.03.26.06.28.19,0,.03,0,.07,0,.1v5.45c0,.13-.1.23-.23.23,0,0,0,0-.01,0Z"/>
      </g>
      <rect class="cls-14" x="2.21" y="272.3" width="50.44" height="7.66" rx="1.55" ry="1.55"/>
      <path class="cls-7" d="m52.65,273.85v4.56c0,.85-.69,1.54-1.54,1.54H3.76c-.3,0-.6-.09-.85-.25-.43-.29-.7-.77-.7-1.29v-4.56c0-.86.68-1.55,1.54-1.56,0,0,0,0,.01,0h47.35c.48,0,.93.23,1.22.62.21.27.33.6.32.94Z"/>
      <path class="cls-11" d="m2.21,278.36v-4.56c0-.85.69-1.54,1.54-1.55h47.35c.3,0,.6.09.85.26H14.45c-.52-.03-.96.36-1,.88,0,.02,0,.04,0,.06v5c0,.47-.37.84-.84.85H2.56c-.22-.26-.35-.6-.35-.94Z"/>
      <path class="cls-18" d="m52.65,273.85v4.56c0,.85-.69,1.54-1.54,1.54H3.76c-.3,0-.6-.09-.85-.25h37.5c.52.03.96-.36,1-.88,0-.02,0-.05,0-.07v-5c0-.47.38-.85.85-.85h10.12c.2.28.29.61.27.95Z"/>
      <g class="cls-20">
        <path class="cls-5" d="m4.79,279.08c-.13,0-.23-.09-.24-.22,0,0,0,0,0-.01v-5.49c0-.13.11-.24.24-.24s.24.11.24.24v5.45c.02.13-.06.24-.19.27-.02,0-.04,0-.05,0Z"/>
        <path class="cls-5" d="m7.31,279.08c-.13,0-.23-.09-.24-.22,0,0,0,0,0-.01v-5.49c0-.13.11-.24.24-.24s.24.11.24.24v5.45c.02.13-.06.24-.19.27-.02,0-.04,0-.05,0Z"/>
        <path class="cls-5" d="m9.82,279.08c-.13,0-.23-.1-.23-.23h0v-5.49c-.03-.13.06-.26.19-.28.13-.03.26.06.28.19,0,.03,0,.07,0,.1v5.45c.02.13-.06.24-.19.27-.02,0-.04,0-.05,0Z"/>
        <path class="cls-5" d="m12.34,279.08c-.13,0-.23-.09-.24-.22,0,0,0,0,0-.01v-5.49c0-.13.11-.24.24-.24s.24.11.24.24v5.45c.02.13-.06.24-.19.27-.02,0-.04,0-.05,0Z"/>
        <path class="cls-5" d="m14.85,279.08c-.13,0-.23-.1-.23-.23h0v-5.49c-.03-.13.06-.26.19-.28.13-.03.26.06.28.19,0,.03,0,.07,0,.1v5.45c.02.13-.06.24-.19.27-.02,0-.04,0-.05,0Z"/>
        <path class="cls-5" d="m17.37,279.08c-.13,0-.23-.09-.24-.22,0,0,0,0,0-.01v-5.49c0-.13.11-.24.24-.24s.24.11.24.24v5.45c.02.13-.06.24-.19.27-.02,0-.04,0-.05,0Z"/>
        <path class="cls-5" d="m19.88,279.08c-.13,0-.23-.1-.23-.23h0v-5.49c-.03-.13.06-.26.19-.28.13-.03.26.06.28.19,0,.03,0,.07,0,.1v5.45c.02.13-.06.24-.19.27-.02,0-.04,0-.05,0Z"/>
        <path class="cls-5" d="m22.4,279.08c-.13,0-.23-.09-.24-.22,0,0,0,0,0-.01v-5.49c0-.13.11-.24.24-.24s.24.11.24.24v5.45c.02.13-.06.24-.19.27-.02,0-.04,0-.05,0Z"/>
        <path class="cls-5" d="m24.92,279.08c-.13,0-.23-.09-.24-.22,0,0,0,0,0-.01v-5.49c-.03-.13.06-.26.19-.28.13-.03.26.06.28.19,0,.03,0,.07,0,.1v5.45c.02.13-.06.24-.19.27-.01,0-.03,0-.04,0Z"/>
        <path class="cls-5" d="m27.43,279.08c-.13,0-.23-.09-.24-.22,0,0,0,0,0-.01v-5.49c0-.13.11-.24.24-.24s.24.11.24.24v5.45c.02.13-.06.24-.19.27-.02,0-.04,0-.05,0Z"/>
        <path class="cls-5" d="m29.95,279.08c-.13,0-.23-.09-.24-.22,0,0,0,0,0-.01v-5.49c-.03-.13.06-.26.19-.28.13-.03.26.06.28.19,0,.03,0,.07,0,.1v5.45c.02.13-.06.24-.19.27-.01,0-.03,0-.04,0Z"/>
        <path class="cls-5" d="m32.46,279.08c-.13,0-.23-.09-.24-.22,0,0,0,0,0-.01v-5.49c0-.13.11-.24.24-.24s.24.11.24.24v5.45c.02.13-.06.24-.19.27-.02,0-.04,0-.05,0Z"/>
        <path class="cls-5" d="m34.98,279.08c-.13,0-.23-.09-.24-.22,0,0,0,0,0-.01v-5.49c0-.13.11-.24.24-.24s.24.11.24.24v5.45c.02.13-.06.24-.19.27-.02,0-.04,0-.05,0Z"/>
        <path class="cls-5" d="m37.49,279.08c-.13,0-.23-.09-.24-.22,0,0,0,0,0-.01v-5.49c0-.13.11-.24.24-.24s.24.11.24.24v5.45c.02.13-.06.24-.19.27-.02,0-.04,0-.05,0Z"/>
        <path class="cls-5" d="m40.01,279.08c-.13,0-.23-.09-.24-.22,0,0,0,0,0-.01v-5.49c0-.13.11-.24.24-.24s.24.11.24.24v5.45c.02.13-.06.24-.19.27-.02,0-.04,0-.05,0Z"/>
        <path class="cls-5" d="m42.56,279.08c-.13,0-.23-.09-.24-.22,0,0,0,0,0-.01v-5.49c0-.13.11-.24.24-.24s.24.11.24.24v5.45c.02.13-.06.24-.19.27-.02,0-.04,0-.05,0Z"/>
        <path class="cls-5" d="m45.04,279.08c-.13,0-.23-.09-.24-.22,0,0,0,0,0-.01v-5.49c0-.13.11-.24.24-.24s.24.11.24.24v5.45c.02.13-.06.24-.19.27-.02,0-.04,0-.05,0Z"/>
        <path class="cls-5" d="m47.56,279.08c-.13,0-.23-.1-.23-.23h0v-5.49c-.03-.13.06-.26.19-.28.13-.03.26.06.28.19,0,.03,0,.07,0,.1v5.45c.02.13-.06.24-.19.27-.02,0-.04,0-.05,0Z"/>
        <path class="cls-5" d="m50.07,279.08c-.13,0-.23-.09-.24-.22,0,0,0,0,0-.01v-5.49c0-.13.11-.24.24-.24s.24.11.24.24v5.45c.02.13-.06.24-.19.27-.02,0-.04,0-.05,0Z"/>
      </g>
      <rect class="cls-14" x="8.88" y="264.69" width="50.44" height="7.66" rx="1.55" ry="1.55"/>
      <path class="cls-7" d="m59.33,266.24v4.56c0,.85-.69,1.54-1.54,1.54,0,0,0,0-.01,0H10.43c-.3,0-.59-.09-.84-.25-.43-.29-.7-.77-.7-1.29v-4.56c0-.86.68-1.55,1.54-1.56h47.35c.48,0,.94.23,1.22.62.22.27.33.6.33.94Z"/>
      <path class="cls-11" d="m8.89,270.79v-4.56c0-.85.68-1.54,1.53-1.55,0,0,0,0,.01,0h47.35c.3,0,.6.09.85.26H21.12c-.52,0-.94.42-.94.94h0v5c0,.47-.38.84-.85.85h-10.12c-.21-.27-.32-.6-.32-.94Z"/>
      <path class="cls-18" d="m59.33,266.24v4.56c0,.85-.69,1.54-1.54,1.54,0,0,0,0-.01,0H10.43c-.3,0-.59-.09-.84-.25h37.5c.52,0,.94-.42.94-.94,0-.02,0-.04,0-.06v-5c0-.47.38-.85.85-.85h10.12c.23.28.35.64.33,1Z"/>
      <g class="cls-20">
        <path class="cls-5" d="m11.47,271.47c-.13,0-.23-.09-.24-.22,0,0,0,0,0-.01v-5.45c0-.13.11-.24.24-.24s.24.11.24.24v5.45c0,.13-.1.23-.23.23,0,0,0,0-.01,0Z"/>
        <path class="cls-5" d="m13.98,271.47c-.13,0-.23-.1-.23-.23h0v-5.45c-.03-.13.06-.26.19-.28.13-.03.26.06.28.19,0,.03,0,.07,0,.1v5.45c0,.13-.1.23-.23.23,0,0,0,0-.01,0Z"/>
        <path class="cls-5" d="m16.5,271.47c-.13,0-.23-.09-.24-.22,0,0,0,0,0-.01v-5.45c0-.13.11-.24.24-.24s.24.11.24.24v5.45c0,.13-.1.23-.23.23,0,0,0,0-.01,0Z"/>
        <path class="cls-5" d="m19.01,271.47c-.13,0-.23-.1-.23-.23h0v-5.45c-.03-.13.06-.26.19-.28.13-.03.26.06.28.19,0,.03,0,.07,0,.1v5.45c0,.13-.1.23-.23.23,0,0,0,0-.01,0Z"/>
        <path class="cls-5" d="m21.56,271.47c-.13,0-.23-.09-.24-.22,0,0,0,0,0-.01v-5.45c0-.13.11-.24.24-.24s.24.11.24.24v5.45c0,.13-.1.23-.23.23,0,0,0,0-.01,0Z"/>
        <path class="cls-5" d="m24.05,271.47c-.13,0-.23-.09-.24-.22,0,0,0,0,0-.01v-5.45c-.03-.13.06-.26.19-.28.13-.03.26.06.28.19,0,.03,0,.07,0,.1v5.45c0,.13-.1.23-.23.23h0Z"/>
        <path class="cls-5" d="m26.56,271.47c-.13,0-.23-.09-.24-.22,0,0,0,0,0-.01v-5.45c0-.13.11-.24.24-.24s.24.11.24.24v5.45c0,.13-.1.23-.23.23,0,0,0,0-.01,0Z"/>
        <path class="cls-5" d="m29.08,271.47c-.13,0-.23-.09-.24-.22,0,0,0,0,0-.01v-5.45c-.03-.13.06-.26.19-.28.13-.03.26.06.28.19,0,.03,0,.07,0,.1v5.45c0,.13-.1.23-.23.23h0Z"/>
        <path class="cls-5" d="m31.56,271.47c-.13,0-.23-.09-.24-.22,0,0,0,0,0-.01v-5.45c0-.13.11-.24.24-.24s.24.11.24.24v5.45c0,.13-.1.23-.23.23,0,0,0,0-.01,0Z"/>
        <path class="cls-5" d="m34.11,271.47c-.13,0-.23-.09-.24-.22,0,0,0,0,0-.01v-5.45c-.03-.13.06-.26.19-.28.13-.03.26.06.28.19,0,.03,0,.07,0,.1v5.45c0,.13-.1.23-.23.23h0Z"/>
        <path class="cls-5" d="m36.62,271.47c-.13,0-.23-.09-.24-.22,0,0,0,0,0-.01v-5.45c0-.13.11-.24.24-.24s.24.11.24.24v5.45c0,.13-.1.23-.23.23,0,0,0,0-.01,0Z"/>
        <path class="cls-5" d="m39.14,271.47c-.13,0-.23-.09-.24-.22,0,0,0,0,0-.01v-5.45c0-.13.11-.24.24-.24s.24.11.24.24v5.45c0,.13-.1.23-.23.23,0,0,0,0-.01,0Z"/>
        <path class="cls-5" d="m41.65,271.47c-.13,0-.23-.09-.24-.22,0,0,0,0,0-.01v-5.45c0-.13.11-.24.24-.24s.24.11.24.24v5.45c0,.13-.1.23-.23.23,0,0,0,0-.01,0Z"/>
        <path class="cls-5" d="m44.17,271.47c-.13,0-.23-.09-.24-.22,0,0,0,0,0-.01v-5.45c0-.13.11-.24.24-.24s.24.11.24.24v5.45c0,.13-.1.23-.23.23,0,0,0,0-.01,0Z"/>
        <path class="cls-5" d="m46.68,271.47c-.13,0-.23-.1-.23-.23h0v-5.45c-.03-.13.06-.26.19-.28.13-.03.26.06.28.19,0,.03,0,.07,0,.1v5.45c0,.13-.1.23-.23.23,0,0,0,0-.01,0Z"/>
        <path class="cls-5" d="m49.2,271.47c-.13,0-.23-.09-.24-.22,0,0,0,0,0-.01v-5.45c0-.13.11-.24.24-.24s.24.11.24.24v5.45c0,.13-.1.23-.23.23,0,0,0,0-.01,0Z"/>
        <path class="cls-5" d="m51.71,271.47c-.13,0-.23-.1-.23-.23h0v-5.45c-.03-.13.06-.26.19-.28.13-.03.26.06.28.19,0,.03,0,.07,0,.1v5.45c0,.13-.1.23-.23.23,0,0,0,0-.01,0Z"/>
        <path class="cls-5" d="m54.23,271.47c-.13,0-.23-.09-.24-.22,0,0,0,0,0-.01v-5.45c0-.13.11-.24.24-.24s.24.11.24.24v5.45c0,.13-.1.23-.23.23,0,0,0,0-.01,0Z"/>
        <path class="cls-5" d="m56.74,271.47c-.13,0-.23-.1-.23-.23h0v-5.45c-.03-.13.06-.26.19-.28.13-.03.26.06.28.19,0,.03,0,.07,0,.1v5.45c0,.13-.1.23-.23.23,0,0,0,0-.01,0Z"/>
      </g>
      <rect class="cls-14" x="6.98" y="257.08" width="50.44" height="7.66" rx="1.55" ry="1.55"/>
      <path class="cls-7" d="m57.42,258.63v4.56c0,.85-.69,1.54-1.54,1.55H8.56c-.85,0-1.54-.7-1.55-1.55v-4.56c0-.86.68-1.55,1.54-1.56,0,0,0,0,.01,0h47.35c.85.02,1.53.71,1.54,1.56h-.03Z"/>
      <path class="cls-11" d="m6.98,263.18v-4.56c0-.86.69-1.55,1.55-1.55.01,0,.02,0,.03,0h47.35c.3,0,.6.09.85.26H19.22c-.52-.03-.96.36-1,.88,0,.02,0,.04,0,.06v5c0,.47-.38.84-.85.85H7.3c-.21-.27-.32-.6-.32-.94Z"/>
      <path class="cls-18" d="m57.42,258.63v4.56c0,.85-.69,1.54-1.54,1.55H8.56c-.3,0-.6-.09-.85-.26h37.5c.52,0,.94-.41.95-.93,0,0,0-.01,0-.02v-5c0-.47.37-.84.84-.85h10.13c.2.28.3.61.29.95Z"/>
      <g class="cls-20">
        <path class="cls-5" d="m9.56,263.86c-.13,0-.23-.09-.24-.22,0,0,0,0,0-.01v-5.45c0-.13.11-.24.24-.24s.24.11.24.24v5.45c0,.13-.1.23-.23.23,0,0,0,0-.01,0Z"/>
        <path class="cls-5" d="m12.08,263.86c-.13,0-.23-.09-.24-.22,0,0,0,0,0-.01v-5.45c-.03-.13.06-.26.19-.28.13-.03.26.06.28.19,0,.03,0,.07,0,.1v5.45c0,.13-.1.23-.23.23h0Z"/>
        <path class="cls-5" d="m14.56,263.86c-.13,0-.23-.09-.24-.22,0,0,0,0,0-.01v-5.45c0-.13.11-.24.24-.24s.24.11.24.24v5.45c0,.13-.1.23-.23.23,0,0,0,0-.01,0Z"/>
        <path class="cls-5" d="m17.11,263.86c-.13,0-.23-.09-.24-.22,0,0,0,0,0-.01v-5.45c0-.13.11-.24.24-.24s.24.11.24.24v5.45c0,.13-.1.23-.23.23,0,0,0,0-.01,0Z"/>
        <path class="cls-5" d="m19.62,263.86c-.13,0-.23-.09-.24-.22,0,0,0,0,0-.01v-5.45c0-.13.11-.24.24-.24s.24.11.24.24v5.45c0,.13-.1.23-.23.23,0,0,0,0-.01,0Z"/>
        <path class="cls-5" d="m22.14,263.86c-.13,0-.23-.09-.24-.22,0,0,0,0,0-.01v-5.45c0-.13.11-.24.24-.24s.24.11.24.24v5.45c0,.13-.1.23-.23.23,0,0,0,0-.01,0Z"/>
        <path class="cls-5" d="m24.65,263.86c-.13,0-.23-.09-.24-.22,0,0,0,0,0-.01v-5.45c0-.13.11-.24.24-.24s.24.11.24.24v5.45c0,.13-.1.23-.23.23,0,0,0,0-.01,0Z"/>
        <path class="cls-5" d="m27.17,263.86c-.13,0-.23-.09-.24-.22,0,0,0,0,0-.01v-5.45c0-.13.11-.24.24-.24s.24.11.24.24v5.45c0,.13-.1.23-.23.23,0,0,0,0-.01,0Z"/>
        <path class="cls-5" d="m29.68,263.86c-.13,0-.23-.1-.23-.23h0v-5.45c-.03-.13.06-.26.19-.28.13-.03.26.06.28.19,0,.03,0,.07,0,.1v5.45c0,.13-.1.23-.23.23,0,0,0,0-.01,0Z"/>
        <path class="cls-5" d="m32.2,263.86c-.13,0-.23-.09-.24-.22,0,0,0,0,0-.01v-5.45c0-.13.11-.24.24-.24s.24.11.24.24v5.45c0,.13-.1.23-.23.23,0,0,0,0-.01,0Z"/>
        <path class="cls-5" d="m34.71,263.86c-.13,0-.23-.1-.23-.23h0v-5.45c-.03-.13.06-.26.19-.28.13-.03.26.06.28.19,0,.03,0,.07,0,.1v5.45c0,.13-.1.23-.23.23,0,0,0,0-.01,0Z"/>
        <path class="cls-5" d="m37.23,263.86c-.13,0-.23-.09-.24-.22,0,0,0,0,0-.01v-5.45c0-.13.11-.24.24-.24s.24.11.24.24v5.45c0,.13-.1.23-.23.23,0,0,0,0-.01,0Z"/>
        <path class="cls-5" d="m39.75,263.86c-.13,0-.23-.09-.24-.22,0,0,0,0,0-.01v-5.45c-.03-.13.06-.26.19-.28.13-.03.26.06.28.19,0,.03,0,.07,0,.1v5.45c0,.13-.1.23-.23.23h0Z"/>
        <path class="cls-5" d="m42.26,263.86c-.13,0-.23-.09-.24-.22,0,0,0,0,0-.01v-5.45c0-.13.11-.24.24-.24s.24.11.24.24v5.45c0,.13-.1.23-.23.23,0,0,0,0-.01,0Z"/>
        <path class="cls-5" d="m44.78,263.86c-.13,0-.23-.09-.24-.22,0,0,0,0,0-.01v-5.45c-.03-.13.06-.26.19-.28.13-.03.26.06.28.19,0,.03,0,.07,0,.1v5.45c0,.13-.1.23-.23.23h0Z"/>
        <path class="cls-5" d="m47.29,263.86c-.13,0-.23-.09-.24-.22,0,0,0,0,0-.01v-5.45c0-.13.11-.24.24-.24s.24.11.24.24v5.45c0,.13-.1.23-.23.23,0,0,0,0-.01,0Z"/>
        <path class="cls-5" d="m49.81,263.86c-.13,0-.23-.09-.24-.22,0,0,0,0,0-.01v-5.45c0-.13.11-.24.24-.24s.24.11.24.24v5.45c0,.13-.1.23-.23.23,0,0,0,0-.01,0Z"/>
        <path class="cls-5" d="m52.32,263.86c-.13,0-.23-.09-.24-.22,0,0,0,0,0-.01v-5.45c0-.13.11-.24.24-.24s.24.11.24.24v5.45c0,.13-.1.23-.23.23,0,0,0,0-.01,0Z"/>
        <path class="cls-5" d="m54.84,263.86c-.13,0-.23-.09-.24-.22,0,0,0,0,0-.01v-5.45c0-.13.11-.24.24-.24s.24.11.24.24v5.45c0,.13-.1.23-.23.23,0,0,0,0-.01,0Z"/>
      </g>
      <path class="cls-18" d="m102.07,234.24v.26c-.12.82-.24,1.73-.4,2.71s-.3,1.84-.48,2.84c-.09.52-.2,1.05-.3,1.6,0,.07,0,.13,0,.2h0s0,.03,0,.05c0,.06,0,.13-.05.2-.05.23-.08.45-.13.68h0c0,.12,0,.22-.07.34-.4,1.92-.88,4-1.46,6.13,0,.06,0,.14-.05.21s0,0,0,0l-.06.21c-.51,1.87-1.09,3.81-1.75,5.78-.08.25-.17.49-.25.75s-.14.41-.22.62l-.08.2h0c0,.06,0,.13-.06.2-.57,1.59-1.2,3.2-1.89,4.8-.15.36-.31.74-.48,1.1s-.37.83-.56,1.25c-.04.07-.07.14-.1.21h0c-.03.07-.07.14-.11.21-.58,1.23-1.2,2.46-1.86,3.66-.15.29-.31.58-.47.86-.51.89-1,1.76-1.58,2.63-.04.07-.08.14-.12.2v.05h0l-.12.2c-.56.87-1.14,1.71-1.75,2.54l-.47.63c-.64.87-1.33,1.72-2,2.55-.15.18-.32.36-.48.54s-.52.6-.8.89l-.19.2h0s-.03,0-.05,0c-.05.08-.11.15-.19.2-.56.61-1.14,1.19-1.75,1.74l-.48.45c-.66.59-1.33,1.17-2,1.71-.15.13-.31.26-.47.37-.37.29-.74.57-1.12.82s-.61.44-.92.64c-.15.11-.31.22-.48.31-.4.26-.8.51-1.21.75-.2.12-.41.25-.62.36l-.47.26h-6.39c-.16-.04-.32-.11-.46-.2-.06-.04-.11-.08-.16-.12l-.12-.12h0s-.08-.1-.11-.15l-.05-.08v-.07h0s-.04-.08-.06-.12v-.33s0,0,0,0c0-.07,0-.14,0-.21v-4.61c-.12-.31-.14-.66-.06-.98.29-.29.69-.45,1.1-.45h.55c-.15-.04-.3-.11-.43-.2h0c-.08-.05-.16-.12-.23-.19-.05-.05-.1-.1-.14-.16h0v-.06s-.05-.06-.07-.1c-.01-.03-.03-.07-.05-.1h0v-.1s0-.07,0-.11c0-.04,0-.07,0-.11h0c0-.07,0-.14,0-.21v-4.61c0-.31.09-.61.27-.86.05-.09.11-.17.19-.23.18-.19.42-.33.68-.4h-.55c-.1.02-.21.02-.31,0-.1-.02-.2-.05-.29-.09-.09-.03-.17-.08-.25-.13h0l-.21-.16c-.05-.06-.1-.12-.14-.18v-.05h0l-.06-.09h0c-.04-.07-.08-.15-.1-.23,0-.06,0-.11,0-.17v-.08c0-.08,0-.17,0-.25v-4.57c0-.71.48-1.33,1.17-1.5h-1.77c-.05.01-.11.01-.16,0-.16-.04-.31-.11-.45-.2-.15-.09-.28-.22-.37-.37h0l-.08-.13s-.05-.07-.06-.11c0-.03,0-.05,0-.08h0s0-.07,0-.11c0-.04,0-.07,0-.11h0c0-.07,0-.14,0-.21v-4.62c0-.41.16-.8.45-1.08.22-.22.5-.37.81-.43h0c-.1-.02-.2-.06-.29-.1-.09-.03-.17-.07-.24-.12h0c-.08-.05-.15-.1-.21-.16-.06-.05-.11-.11-.14-.18h0l-.08-.12c-.04-.07-.07-.14-.09-.22,0-.06,0-.11,0-.17v-.08c0-.08,0-.17,0-.25v-4.57c0-.85.69-1.54,1.54-1.54h3.45c-.17-.04-.33-.11-.47-.21h0c-.08-.06-.16-.13-.24-.2-.05-.05-.1-.1-.13-.17h0v-.05l-.07-.1s0-.07,0-.1c-.03-.05-.05-.1-.06-.16,0-.03,0-.06,0-.09,0-.04,0-.07,0-.11h0c0-.07,0-.14,0-.21v-5.25c0-.3.09-.6.27-.85.05-.08.12-.16.19-.23.18-.2.42-.34.69-.4h-1.9c-.16-.04-.32-.11-.46-.2-.14-.1-.27-.22-.37-.36v-.05h0l-.06-.09h0c-.04-.07-.08-.15-.1-.23,0-.06,0-.11,0-.17v-.08c0-.08,0-.17,0-.25v-4.57c0-.85.68-1.54,1.53-1.55,0,0,0,0,.01,0l33.24-.09Z"/>
      <circle class="cls-14" cx="75.13" cy="232.93" r="24.63"/>
      <path class="cls-8" d="m87.26,254.36c-11.83,6.71-26.86,2.55-33.57-9.28-6.71-11.83-2.55-26.86,9.28-33.57,11.83-6.71,26.86-2.55,33.57,9.28,0,.01.01.02.02.03,6.71,11.78,2.6,26.76-9.18,33.47-.04.02-.08.05-.12.07Z"/>
      <path class="cls-7" d="m77.56,234.2l2.76,4.87c1.84-1.44,2.16-2.86,1.49-4-.77-1.4-2.34-1.34-4.25-.87Z"/>
      <path class="cls-7" d="m68.93,230.74c.75,1.33,2.28,1.26,4.14.82l-2.78-4.9c-1.73,1.41-2.05,2.87-1.36,4.08Z"/>
      <path class="cls-7" d="m64.75,214.66c-10.08,5.73-13.61,18.55-7.88,28.63s18.55,13.61,28.63,7.88c10.07-5.72,13.6-18.51,7.91-28.59-5.7-10.1-18.51-13.66-28.61-7.96-.02,0-.03.02-.05.03Zm17.26,27.42l1.75,3.09-2.26,1.28-1.73-3.09c-2.8,1.36-5.92,2-8.05,1.53l-.34-3.48c2.28.3,4.6-.04,6.7-1l-3.12-5.51c-3.48,1-7.32,1.85-9.49-2-1.6-2.81-.95-6.42,3.12-9.27l-1.76-3.11,2.26-1.28,1.73,3.06c2.02-1.04,4.28-1.55,6.55-1.49l.44,3.42c-1.82-.03-3.63.31-5.31,1l3.16,5.57c3.48-1,7.36-1.91,9.53,1.92,1.59,2.87.9,6.47-3.18,9.36Z"/>
      <circle class="cls-14" cx="49.13" cy="264.31" r="24.67" transform="translate(-64.41 20.63) rotate(-14.45)"/>
      <circle class="cls-8" cx="49.13" cy="264.31" r="24.67" transform="translate(-64.41 20.63) rotate(-14.45)"/>
      <path class="cls-7" d="m49.94,265.66l-3.29,4.54c2.08,1.08,3.51.78,4.3-.32.91-1.26.21-2.67-1.01-4.22Z"/>
      <path class="cls-7" d="m49.49,256.36c-.89,1.23-.2,2.59,1,4.1l3.3-4.56c-2.05-1.01-3.48-.64-4.3.46Z"/>
      <path class="cls-7" d="m62.37,245.89c-9.41-6.78-22.53-4.66-29.32,4.75-6.78,9.41-4.66,22.53,4.75,29.32,9.39,6.77,22.49,4.66,29.28-4.71,6.81-9.39,4.71-22.52-4.68-29.33-.01-.01-.03-.02-.04-.03Zm-17.74,27.11l-2.07,2.88-2.1-1.52,2.06-2.85c-2.41-2-4.25-4.56-4.75-6.68l3-1.76c.68,2.2,1.97,4.17,3.72,5.66l3.71-5.13c-2.35-2.75-4.73-5.89-2.15-9.45,1.89-2.62,5.44-3.53,9.72-1l2.1-2.9,2.1,1.52-2.06,2.85c1.79,1.4,3.19,3.24,4.08,5.33l-2.92,1.83c-.74-1.67-1.81-3.16-3.16-4.39l-3.75,5.19c2.35,2.75,4.81,5.89,2.23,9.46-1.83,2.6-5.43,3.47-9.76.96Z"/>
      <circle class="cls-14" cx="106.26" cy="186" r="24.63"/>
      <circle class="cls-8" cx="106.26" cy="186" r="24.63"/>
      <path class="cls-7" d="m107.78,188.26v5.61c2.31-.35,3.29-1.43,3.29-2.79,0-1.55-1.39-2.28-3.29-2.82Z"/>
      <path class="cls-7" d="m101.98,181.01c0,1.52,1.37,2.21,3.2,2.75v-5.64c-2.25.35-3.2,1.49-3.2,2.89Z"/>
      <path class="cls-7" d="m106.28,164.96c-11.6,0-21,9.4-21,21s9.4,21,21,21,21-9.4,21-21h0c0-11.6-9.4-21-21-21Zm1.5,32.36v3.55h-2.6v-3.51c-3.1-.19-6.11-1.2-7.76-2.63l1.43-3.2c1.84,1.39,4.03,2.22,6.33,2.41v-6.33c-3.51-.86-7.28-2-7.28-6.4,0-3.23,2.34-6,7.28-6.53v-3.58h2.6v3.52c2.27.1,4.48.76,6.43,1.93l-1.3,3.2c-1.57-.92-3.32-1.5-5.13-1.71v6.4c3.52.85,7.35,2,7.35,6.36,0,3.22-2.38,6.01-7.35,6.56v-.04Z"/>
      <path class="cls-14" d="m163.84,237.59c12.79,4.63,19.4,18.76,14.76,31.55-4.63,12.79-18.76,19.4-31.55,14.76-12.79-4.63-19.4-18.75-14.77-31.54,4.62-12.79,18.74-19.4,31.53-14.78,0,0,.02,0,.02,0Z"/>
      <path class="cls-8" d="m163.84,237.59c12.79,4.63,19.4,18.76,14.76,31.55-4.63,12.79-18.76,19.4-31.55,14.76-12.79-4.63-19.4-18.75-14.77-31.54,4.62-12.79,18.74-19.4,31.53-14.78,0,0,.02,0,.02,0Z"/>
      <path class="cls-7" d="m158.1,260.11l5.27,1.91c.46-2.3-.21-3.58-1.5-4.05-1.45-.53-2.61.53-3.77,2.14Z"/>
      <path class="cls-7" d="m149.31,263.08c1.43.52,2.55-.52,3.68-2.06l-5.3-1.93c-.44,2.27.31,3.52,1.62,3.99Z"/>
      <path class="cls-7" d="m135.68,253.58c-3.94,10.91,1.71,22.95,12.62,26.89,10.91,3.94,22.95-1.71,26.89-12.62,3.93-10.89-1.69-22.91-12.57-26.87-10.9-3.96-22.95,1.66-26.91,12.56,0,.01-.01.03-.02.04Zm30.94,9.61l3.33,1.21-.88,2.45-3.31-1.2c-1.02,2.6-2.8,4.83-5.11,6.4l-2.53-2.43c1.93-1.26,3.47-3.04,4.43-5.14l-5.99-2.12c-2,3-4.36,6.17-8.5,4.67-3-1.1-4.89-4.26-3.65-9.07l-3.36-1.22.88-2.44,3.31,1.19c.86-2.1,2.24-3.95,4-5.38l2.56,2.31c-1.4,1.16-2.55,2.61-3.36,4.24l6,2.18c2-3,4.35-6.24,8.49-4.74,3.1,1.06,4.91,4.26,3.69,9.09Z"/>
    </g>
    <rect class="cls-13" x="102.41" width="159.88" height="287.56" rx="9.58" ry="9.58"/>
    <rect class="cls-7" x="102.41" width="159.88" height="287.56" rx="9.58" ry="9.58"/>
    <path class="cls-13" d="m256.89,9.63v267.78c0,2.17-1.77,3.93-3.94,3.92-.02,0-.04,0-.06,0H111.36c-1.94.03-3.53-1.52-3.56-3.46,0-.04,0-.09,0-.13V9.36c-.07-1.73,1.27-3.2,3-3.29h35.39c1.02.02,1.92.65,2.29,1.6l1.46,3.6c.37.94,1.26,1.56,2.27,1.57h60.35c1,0,1.91-.62,2.28-1.55l1.46-3.62c.37-.94,1.27-1.58,2.28-1.6h34.89c1.91.09,3.41,1.65,3.42,3.56Z"/>
    <path class="cls-12" d="m182.32,6.36c0,1.1-.9,2-2,2s-2-.9-2-2,.9-2,2-2c1.09.03,1.97.91,2,2Z"/>
    <path class="cls-12" d="m186.46,6.36c0,.72-.59,1.31-1.31,1.31s-1.31-.59-1.31-1.31.59-1.31,1.31-1.31h0c.72,0,1.3.57,1.31,1.29,0,0,0,.01,0,.02Z"/>
    <rect class="cls-14" x="109.95" y="23.17" width="144.79" height="245.67"/>
    <rect class="cls-12" x="109.95" y="23.17" width="144.79" height="245.67"/>
    <rect class="cls-15" x="113.88" y="213.82" width="136.93" height="29.9" rx="3.94" ry="3.94"/>
    <rect class="cls-9" x="113.88" y="170.67" width="136.93" height="38.06" rx="3.94" ry="3.94"/>
    <rect class="cls-9" x="113.88" y="61.5" width="136.93" height="105.1" rx="3.94" ry="3.94"/>
    <rect class="cls-15" x="113.88" y="27.85" width="136.93" height="29.9" rx="3.94" ry="3.94"/>
    <g class="cls-19">
      <path class="cls-5" d="m183.38,189.08l1.3.72-.44.77-1.33-.77v1.47h-.87v-1.46l-1.31.76-.46-.77,1.31-.72-1.31-.73.46-.78,1.31.77v-1.46h.87v1.48l1.33-.78.44.78-1.3.72Z"/>
      <path class="cls-5" d="m188.37,189.08l1.3.72-.45.77-1.32-.77v1.47h-.87v-1.46l-1.32.76-.45-.77,1.31-.72-1.31-.73.45-.78,1.32.77v-1.46h.87v1.48l1.32-.78.45.78-1.3.72Z"/>
      <path class="cls-5" d="m193.35,189.08l1.31.72-.45.77-1.33-.77v1.47h-.87v-1.46l-1.32.76-.46-.77,1.32-.72-1.29-.72.46-.78,1.32.77v-1.46h.87v1.47l1.33-.78.45.78-1.34.72Z"/>
      <path class="cls-5" d="m198.34,189.08l1.3.72-.44.77-1.33-.77v1.47h-.87v-1.46l-1.31.76-.46-.77,1.31-.72-1.31-.73.46-.78,1.31.77v-1.46h.87v1.48l1.33-.78.44.78-1.3.72Z"/>
      <path class="cls-5" d="m206.25,189.08l1.31.72-.45.77-1.33-.77v1.47h-.87v-1.46l-1.32.76-.46-.77,1.32-.72-1.29-.72.46-.78,1.32.77v-1.46h.87v1.47l1.33-.78.45.78-1.34.72Z"/>
      <path class="cls-5" d="m211.24,189.08l1.3.72-.44.77-1.33-.77v1.47h-.87v-1.46l-1.31.76-.46-.77,1.31-.72-1.31-.73.46-.78,1.31.77v-1.46h.87v1.48l1.33-.78.44.78-1.3.72Z"/>
      <path class="cls-5" d="m216.22,189.08l1.31.72-.45.77-1.33-.77v1.47h-.87v-1.46l-1.32.76-.46-.77,1.32-.72-1.32-.73.46-.78,1.32.77v-1.46h.87v1.47l1.33-.78.45.78-1.31.73Z"/>
      <path class="cls-5" d="m221.21,189.08l1.31.72-.45.77-1.33-.77v1.47h-.87v-1.46l-1.31.76-.46-.77,1.32-.72-1.32-.73.46-.78,1.31.77v-1.46h.87v1.48l1.33-.78.45.78-1.31.72Z"/>
      <path class="cls-5" d="m229.12,189.08l1.31.72-.45.77-1.32-.77v1.47h-.87v-1.46l-1.32.76-.46-.77,1.32-.72-1.32-.73.46-.78,1.32.77v-1.46h.87v1.48l1.32-.78.45.78-1.31.72Z"/>
      <path class="cls-5" d="m234.11,189.08l1.31.72-.45.77-1.33-.77v1.47h-.87v-1.46l-1.31.76-.46-.77,1.32-.72-1.32-.73.46-.78,1.31.77v-1.46h.87v1.48l1.33-.78.45.78-1.31.72Z"/>
      <path class="cls-5" d="m239.1,189.08l1.3.72-.44.77-1.33-.77v1.47h-.87v-1.46l-1.31.76-.46-.77,1.31-.72-1.31-.73.46-.78,1.31.77v-1.46h.87v1.48l1.33-.78.44.78-1.3.72Z"/>
    </g>
    <rect class="cls-15" x="124.11" y="181" width="24.63" height="16.32" rx="2.6" ry="2.6"/>
    <g class="cls-19">
      <rect class="cls-5" x="124.11" y="189.8" width="24.63" height="4.07"/>
    </g>
    <g class="cls-19">
      <path class="cls-5" d="m146.76,186.89c0,.68-.54,1.23-1.22,1.24-.68,0-1.23-.54-1.24-1.22s.54-1.23,1.22-1.24c0,0,0,0,0,0,.68,0,1.22.54,1.23,1.22Z"/>
    </g>
    <path class="cls-9" d="m145.16,186.89c0,.68-.54,1.23-1.22,1.24-.68,0-1.23-.54-1.24-1.22s.54-1.23,1.22-1.24c0,0,0,0,0,0,.68,0,1.22.54,1.23,1.22Z"/>
    <path class="cls-5" d="m135.81,38.16l-2.7,8h-.89l-2.35-6.8-2.31,6.81h-.89l-2.7-8h.87l2.31,6.88,2.4-6.88h.79l2.35,6.92,2.35-6.92h.77Z"/>
    <polygon class="cls-15" points="133.45 46.64 131.88 46.64 129.87 40.8 127.85 46.64 126.29 46.64 123.27 37.68 125.15 37.68 127.12 43.57 129.17 37.68 130.64 37.68 132.65 43.6 134.66 37.68 136.48 37.68 133.45 46.64"/>
    <path class="cls-5" d="m141.26,42.44v3.73h-.77v-.94c-.46.69-1.26,1.07-2.08,1-1.36,0-2.19-.71-2.19-1.75s.59-1.7,2.32-1.7h1.91v-.42c0-1-.58-1.59-1.7-1.59-.73,0-1.44.25-2,.71l-.36-.61c.7-.54,1.56-.83,2.45-.81,1.17-.16,2.25.65,2.42,1.82.03.18.03.37,0,.56Zm-.81,1.92v-1h-1.89c-1.16,0-1.54.46-1.54,1.08s.56,1.13,1.52,1.13c.83.05,1.6-.43,1.91-1.21Z"/>
    <path class="cls-15" d="m138.41,46.7c-1.6,0-2.67-.9-2.67-2.23,0-.65.27-2.18,2.8-2.18h1.43c0-.49-.21-1-1.22-1-.62,0-1.21.2-1.69.59l-.43.38-.87-1.45.31-.26c.78-.62,1.76-.95,2.76-.93,1.43-.17,2.73.85,2.9,2.28.02.18.02.36,0,.54v4.2h-1.73v-.28c-.5.24-1.05.36-1.6.34Zm.15-2.85c-1.07,0-1.07.39-1.07.6,0,.57.66.66,1,.66.61.04,1.17-.3,1.43-.85v-.41h-1.36Z"/>
    <path class="cls-5" d="m143.47,37.67h.81v8.5h-.81v-8.5Z"/>
    <rect class="cls-15" x="142.99" y="37.2" width="1.77" height="9.44"/>
    <path class="cls-5" d="m146.56,37.67h.82v8.5h-.82v-8.5Z"/>
    <rect class="cls-15" x="146.07" y="37.2" width="1.77" height="9.44"/>
    <path class="cls-5" d="m154.86,43.41h-5c.07,1.22,1.12,2.16,2.34,2.09,0,0,.02,0,.03,0,.7.02,1.37-.27,1.84-.79l.46.53c-1.22,1.27-3.24,1.31-4.51.09-.6-.57-.95-1.35-.98-2.17-.09-1.6,1.13-2.97,2.73-3.06.09,0,.18,0,.27,0,1.58-.03,2.89,1.24,2.92,2.82,0,.08,0,.16,0,.24-.08.07-.09.2-.09.25Zm-5-.61h4.27c-.08-1.18-1.1-2.07-2.28-1.99-1.07.07-1.92.92-1.99,1.99Z"/>
    <path class="cls-15" d="m152.17,46.7c-1.91.08-3.53-1.41-3.61-3.33,0-.07,0-.14,0-.21-.1-1.88,1.34-3.49,3.22-3.59s3.49,1.34,3.59,3.22c0,.12,0,.25,0,.37v.72h-4.93c.27.74,1,1.21,1.79,1.15.56.02,1.1-.21,1.48-.63l.36-.41,1.08,1.24-.26.32c-.69.77-1.69,1.2-2.72,1.15Zm-1.75-4.34h3.14c-.25-.63-.87-1.03-1.55-1-.69-.05-1.34.35-1.59,1Z"/>
    <path class="cls-5" d="m159.7,45.8c-.36.29-.81.44-1.27.42-.87.1-1.66-.53-1.76-1.4-.01-.12-.01-.23,0-.35v-3.64h-1.11v-.68h1.08v-1.32h.81v1.32h1.83v.68h-1.83v3.6c-.05.55.36,1.04.91,1.09.03,0,.06,0,.09,0,.32,0,.64-.1.89-.3l.36.58Z"/>
    <path class="cls-15" d="m158.43,46.7c-1.14.1-2.14-.75-2.24-1.89,0-.11-.01-.23,0-.34v-3.11h-1.08v-1.64h1.08v-1.36h1.77v1.32h1.83v1.68h-1.83v3.12c0,.51.22.62.56.62.21,0,.41-.06.57-.19l.47-.42.73,1.47-.27.25c-.46.34-1.02.52-1.59.49Z"/>
    <path class="cls-9" d="m241.18,38.99h-9.87c-.53.16-1.09-.13-1.25-.66-.16-.53.13-1.09.66-1.25.19-.06.4-.06.59,0h9.87c.53-.16,1.09.13,1.25.66.16.53-.13,1.09-.66,1.25-.19.06-.4.06-.59,0Z"/>
    <path class="cls-9" d="m241.18,48.52h-9.87c-.52.17-1.09-.11-1.26-.64-.17-.52.11-1.09.64-1.26.2-.07.42-.07.62,0h9.87c.52-.17,1.09.11,1.26.64.17.52-.11,1.09-.64,1.26-.2.07-.42.07-.62,0Z"/>
    <path class="cls-9" d="m241.18,43.76h-9.87c-.53.16-1.09-.13-1.25-.66-.16-.53.13-1.09.66-1.25.19-.06.4-.06.59,0h9.87c.53-.16,1.09.13,1.25.66.16.53-.13,1.09-.66,1.25-.19.06-.4.06-.59,0Z"/>
    <g class="cls-21">
      <path class="cls-5" d="m168.11,124.23h-42.1c-1.32.09-2.45-.91-2.54-2.23-.09-1.32.91-2.45,2.23-2.54.1,0,.21,0,.31,0h42.1c1.32.09,2.32,1.22,2.23,2.54-.08,1.2-1.03,2.15-2.23,2.23h0Z"/>
      <path class="cls-5" d="m186.23,137.58h-60.22c-1.32.09-2.45-.91-2.54-2.23-.09-1.32.91-2.45,2.23-2.54.1,0,.21,0,.31,0h60.22c1.32.09,2.32,1.22,2.23,2.54-.08,1.2-1.03,2.15-2.23,2.23Z"/>
      <path class="cls-5" d="m238.68,137.58h-16.35c-1.32-.09-2.32-1.22-2.23-2.54.08-1.2,1.03-2.15,2.23-2.23h16.35c1.32-.09,2.45.91,2.54,2.23.09,1.32-.91,2.45-2.23,2.54-.1,0-.21,0-.31,0Z"/>
      <path class="cls-5" d="m153.81,147.12h-27.8c-1.32.09-2.45-.91-2.54-2.23-.09-1.32.91-2.45,2.23-2.54.1,0,.21,0,.31,0h27.8c1.32.09,2.32,1.22,2.23,2.54-.08,1.2-1.03,2.15-2.23,2.23Z"/>
      <path class="cls-5" d="m238.68,147.12h-23c-1.32-.09-2.32-1.22-2.23-2.54.08-1.2,1.03-2.15,2.23-2.23h23c1.32-.09,2.45.91,2.54,2.23.09,1.32-.91,2.45-2.23,2.54-.1,0-.21,0-.31,0Z"/>
      <path class="cls-5" d="m180.56,156.65h-54.5c-1.31,0-2.38-1.07-2.38-2.38s1.07-2.38,2.38-2.38h54.5c1.31,0,2.38,1.07,2.38,2.38s-1.07,2.38-2.38,2.38Z"/>
      <path class="cls-5" d="m238.68,156.65h-13.49c-1.31,0-2.38-1.07-2.38-2.38s1.07-2.38,2.38-2.38h13.49c1.31,0,2.38,1.07,2.38,2.38s-1.07,2.38-2.38,2.38Z"/>
    </g>
    <path class="cls-5" d="m226.32,227.43c0,1.7-1.24,2.73-3.27,2.73h-2.16v2.53h-.84v-8h3c2.03-.01,3.27,1.02,3.27,2.74Zm-.85,0c0-1.28-.84-2-2.45-2h-2.13v4h2.13c1.61-.01,2.45-.74,2.45-2Z"/>
    <path class="cls-15" d="m221.37,233.17h-1.81v-9h3.48c2.31,0,3.75,1.23,3.75,3.22s-1.44,3.21-3.75,3.21h-1.68v2.57Zm0-4.23h1.65c1.31,0,2-.51,2-1.51s-.67-1.54-2-1.54h-1.65v3.05Z"/>
    <path class="cls-5" d="m232.77,230.55h-4.46l-1,2.14h-.88l3.66-8h.84l3.66,8h-.89l-.93-2.14Zm-.31-.68l-1.9-4.31-1.93,4.31h3.83Z"/>
    <path class="cls-15" d="m235.36,233.17h-1.94l-1-2.14h-3.85l-1,2.14h-1.93l4.1-9h1.45l4.17,9Zm-6-3.78h2.37l-1.17-2.66-1.2,2.66Z"/>
    <path class="cls-5" d="m238.22,229.92v2.77h-.83v-2.77l-3.21-5.24h.91l2.74,4.5,2.75-4.5h.85l-3.21,5.24Z"/>
    <polygon class="cls-15" points="238.7 233.17 236.91 233.17 236.91 230.06 233.33 224.21 235.36 224.21 237.83 228.26 240.31 224.21 242.28 224.21 238.7 230.06 238.7 233.17"/>
    <path class="cls-9" d="m138.7,233.98h-10.56c-.24,0-.45-.17-.5-.4l-2.42-10.15c-.07-.27.09-.54.35-.61.05-.01.1-.02.15-.02h15.4c.16,0,.3.07.4.19.1.12.14.29.1.44l-2.42,10.15c-.05.23-.26.4-.5.4Zm-10.15-1h9.74l2.17-9.11h-14.08l2.17,9.11Z"/>
    <path class="cls-9" d="m133.42,233.98c-.29,0-.52-.23-.52-.52v-10.1c.08-.28.37-.44.64-.36.17.05.31.18.36.36v10.1c0,.27-.21.5-.48.52Z"/>
    <path class="cls-9" d="m136.28,233.96h-.06c-.28-.03-.49-.29-.46-.57l1.19-10.13c.1-.27.41-.4.67-.3.18.07.3.23.33.42l-1.19,10.13c-.03.25-.23.43-.48.45Z"/>
    <path class="cls-9" d="m130.56,233.96c-.26,0-.48-.2-.51-.46l-1.19-10.14c-.03-.28.16-.53.44-.57,0,0,0,0,0,0,.28-.04.54.17.58.45l1.19,10.12c.03.28-.18.54-.46.57l-.06.03Z"/>
    <path class="cls-9" d="m140.3,227.28h-13.74c-.28-.08-.44-.37-.36-.64.05-.17.18-.31.36-.36h13.76c.28.08.44.37.36.64-.05.17-.18.31-.36.36h-.02Z"/>
    <path class="cls-9" d="m139.46,230.79h-12.08c-.29,0-.52-.23-.52-.52s.23-.52.52-.52h12.08c.28,0,.51.24.52.52,0,.29-.23.52-.52.52Z"/>
    <path class="cls-9" d="m128.56,237.67c-.94,0-1.71-.77-1.71-1.71s.77-1.71,1.71-1.71c.94,0,1.71.77,1.71,1.71h0c0,.94-.77,1.7-1.71,1.71Zm0-2.38c-.37,0-.67.3-.67.67h0c0,.37.3.67.67.67s.67-.3.67-.67h0c0-.37-.3-.67-.67-.67h0Z"/>
    <path class="cls-9" d="m138.24,237.67c-.94,0-1.71-.77-1.71-1.71s.77-1.71,1.71-1.71c.94,0,1.71.77,1.71,1.71h0c0,.94-.77,1.7-1.71,1.71Zm0-2.38c-.37,0-.67.3-.68.67,0,.37.31.67.68.68.37,0,.67-.31.67-.68,0-.37-.3-.67-.67-.67h0Z"/>
    <path class="cls-9" d="m125.72,223.83c-.06,0-.11,0-.17,0l-2.46-.85c-.27-.09-.41-.38-.33-.64,0,0,0-.01,0-.02.09-.27.39-.41.66-.32l2.46.85c.27.1.41.39.32.66-.08.2-.27.33-.49.32Z"/>
    <circle class="cls-15" cx="182.35" cy="91.59" r="20.4" transform="translate(-19.13 123.91) rotate(-35.78)"/>
    <path class="cls-9" d="m186.13,96.68c-2.82-.02-5.1-2.32-5.08-5.14,0-.29.03-.57.08-.86.54-2.48,2.77-4.23,5.31-4.17h5.64c.07,0,.12-.05.12-.12v-3c0-.71-.57-1.28-1.28-1.28h-18.36c-.7,0-1.27.57-1.27,1.27,0,0,0,0,0,.01v16.46c0,.7.57,1.27,1.27,1.28h18.3c.71,0,1.28-.57,1.28-1.28v-3c0-.06-.06-.12-.12-.12l-5.89-.05Z"/>
    <path class="cls-9" d="m192.09,88.13h-6c-1.91,0-3.46,1.55-3.46,3.46s1.55,3.46,3.46,3.46h6.01c.71,0,1.28-.57,1.28-1.28v-4.41c-.02-.69-.59-1.24-1.28-1.23Zm-5.75,4.75c-.72,0-1.3-.58-1.3-1.3,0-.72.58-1.3,1.3-1.3.72,0,1.3.58,1.3,1.3,0,0,0,0,0,0,0,.71-.58,1.29-1.29,1.29,0,0,0,0-.01,0Z"/>
    <rect class="cls-12" x="124.24" y="14.37" width="1.84" height="2.45"/>
    <rect class="cls-12" x="121.23" y="13.55" width="1.84" height="3.27"/>
    <rect class="cls-12" x="118.23" y="12.73" width="1.84" height="4.09"/>
    <rect class="cls-12" x="115.23" y="11.91" width="1.84" height="4.91"/>
    <rect class="cls-12" x="238.92" y="13.47" width="1.09" height="2.45"/>
    <rect class="cls-12" x="240.76" y="12.57" width="8.7" height="4.25"/>
    <path class="cls-16" d="m249.01,6.14c-13.19,36.54-56.1,136.89-141.37,177.82V9.47c-.07-1.73,1.27-3.2,3-3.29h35.39c1.02.02,1.92.65,2.29,1.6l1.46,3.6c.37.94,1.26,1.56,2.27,1.57h60.35c1,0,1.91-.62,2.28-1.55l1.46-3.62c.37-.94,1.27-1.58,2.28-1.6l30.59-.04Z"/>
    <path class="cls-16" d="m257.02,136.72v140.1c0,2.17-1.77,3.93-3.94,3.92-.02,0-.04,0-.06,0H111.49c-1.94.03-3.53-1.52-3.56-3.46,0-.04,0-.09,0-.13v-63.73c39.39-51.85,107.08-70.22,149.09-76.7Z"/>
    <g id="freepik--Character--inject-2">
      <path class="cls-17" d="m295.02,66.53c3.2,7.28,6.8,16,10.79,22.24-.38-.24-.81-.38-1.25-.41-.92,0-1,.3-.86.21,1.54-1,2.73-2.79,4-4.58,2.21-3.31,4.24-6.72,6.1-10.24.63-1.18,2.09-1.63,3.27-1,1.05.56,1.54,1.79,1.16,2.91-1.4,3.99-3.07,7.88-5,11.64-2,3.92-6.27,11.21-11.79,7.74-2.84-2.16-4.43-5.3-6.24-8-3.28-5.37-6.22-10.82-9.06-16.43-2.79-6,6-10.14,8.84-4.08h.04Z"/>
      <path class="cls-13" d="m292.19,63.24c4.36.27,11.65,14,11.65,14l-13.36,9.9s-2.38-20.26-2.38-20.29,4.09-3.61,4.09-3.61Z"/>
      <path class="cls-3" d="m303.84,77.27l-6.65,4.93-4.63,3.41-2.1,1.56s-1.44-12.24-2.07-17.7c-.19-1.57-.31-2.58-.31-2.59s4.09-3.63,4.09-3.63c3.6.22,9.21,9.66,11.05,12.93.4.68.62,1.09.62,1.09Z"/>
      <polygon class="cls-13" points="303.83 75.81 305.71 77.95 293.51 87.17 291.41 83.63 303.83 75.81"/>
      <polygon class="cls-1" points="305.7 77.95 297.62 84.06 293.51 87.17 292.58 85.61 291.41 83.63 296.56 80.38 303.24 76.18 303.83 75.81 305.7 77.95"/>
      <path class="cls-13" d="m305.73,72.89c-.1.35.11.71.46.81.03,0,.06.02.1.02l7.36,1c.42.05.82-.22.93-.63l3.64-14.28c.11-.4-.13-.82-.53-.93,0,0-.01,0-.02,0l-7.36-1c-.44.01-.82.31-.94.73l-3.64,14.29Z"/>
      <path class="cls-8" d="m310.2,58.62l-3.64,14.42c-.12.28,0,.61.29.74.06.03.12.04.19.04l6.24.85c.42.06,1.21-.07,1.32-.47l3.68-14.48c.11-.41-.56-.83-1-.89l-6.24-.86c-.41-.05-.78.24-.84.65Z"/>
      <path class="cls-4" d="m318.43,75.18l-.92-8.3-5.39,6.26s-1.16,5.36,3.71,5l2.6-2.96Z"/>
      <polygon class="cls-4" points="312.27 65.32 310.49 71.42 312.12 73.14 317.51 66.88 312.27 65.32"/>
      <path class="cls-18" d="m299.89,82.36l-6.33,4.81-.93-1.56-2.1,1.56s-1.44-12.24-2.07-17.7c1.16.97,10.28,2.35,11.43,12.89Z"/>
      <path class="cls-4" d="m263.36,214.24l2.68,5.12s2.3-1.22,5.95-3.22c1.05-.57,2.21-1.2,3.45-1.9,3.46-1.9,7.61-4.21,12-6.69l2.87-1.65c15.21-8.71,27.68-17.07,27.68-21.64,0-7.66-5.55-22.23-13.39-36.81-5.24-9.74-9.6-17.58-9.6-17.58l-18.62,11.4s6.34,8.48,12.84,17.82c7.58,10.89,15.37,22.93,13.59,24.13-1.36.91-8.29,6.33-15.95,12.39l-1.39,1.09c-4.13,3.27-8.4,6.65-12.08,9.58l-3,2.35-7.03,5.61Z"/>
      <path class="cls-6" d="m276.37,141.27s6.34,8.48,12.84,17.82l15.35-11.64c-5.24-9.74-9.6-17.58-9.6-17.58l-18.59,11.4Z"/>
      <path class="cls-6" d="m270.41,208.63l1.58,7.51c4.58-2.5,11.28-6.2,18.31-10.24-1.19-3.62-2.56-7.7-3.45-10.29-5.72,4.51-11.86,9.39-16.44,13.02Z"/>
      <path class="cls-4" d="m255.15,150.74l3.59,10.94.73,2.25,5.47,16.65.62,1.91,3.62,11,4.2,12.8,1.94,5.92c0,.67.07,1.35.12,2,1.84,28.28,16.57,65.24,16.57,65.24l5.26-1.43c-1.87-22.21-5.86-48.1-9.84-70.5-.66-3.72-1.31-7.35-2-10.85-.37-2-.73-3.89-1.08-5.76-.76-4-1.48-7.74-2.19-11.24-.33-1.66-.65-3.25-.95-4.8-.77-3.82-1.47-7.22-2.09-10.14s-1.11-5.33-1.51-7.18c-.58-2.69-.9-4.19-.9-4.19l-21.56-2.62Z"/>
      <path class="cls-2" d="m269.7,208.75c.68,0,.27,8.4.27,8.4,0,0-5.17,5.24-6.27,10.27s-4.15,2.27-4.24-3.33-.15-9.87-.21-13.85,3.37-1.55,10.45-1.49Z"/>
      <path class="cls-14" d="m267.89,221.6c.13-1.21.47-2.4,1-3.5l.06-.07h.05c.05-.03.12-.03.17,0,.08,0,2.05.7,2.54,1.83.16.35.16.74,0,1.09-.17.38-.41.57-.69.56-.44,0-.89-.61-1.27-1.29.12.63.06,1.28-.18,1.88-.11.23-.32.39-.56.46-.31.13-.66.06-.89-.19-.17-.22-.25-.49-.23-.77Zm1.17-2.73c-.51,1.24-.95,2.79-.62,3.18,0,0,.12.13.45.05.12-.04.23-.13.29-.25.23-.99.19-2.02-.12-2.98h0Zm2.33,1.46c0-.11-.03-.23-.08-.33-.44-.66-1.08-1.15-1.82-1.42.49,1.24,1.16,2.43,1.54,2.45.11,0,.22-.19.27-.31.05-.11.08-.24.09-.36v-.03Z"/>
      <path class="cls-2" d="m290.56,277.1c0-.68,8.4-.15,8.4-.15,0,0,5.16,5.25,10.17,6.43s2.21,4.18-3.39,4.18h-13.9c-3.98,0-1.5-3.39-1.28-10.46Z"/>
      <path class="cls-14" d="m303.32,279.1c-1.21-.15-2.38-.51-3.47-1.06l-.08-.06h0v-.05c-.02-.05-.02-.12,0-.17,0-.08.74-2,1.88-2.51.34-.16.74-.16,1.08,0,.38.18.57.42.55.7,0,.44-.62.89-1.3,1.25.63-.11,1.29-.04,1.88.21.22.12.39.32.45.56.12.31.04.67-.21.9-.22.17-.5.25-.78.23Zm-2.71-1.21c1.24.53,2.78,1,3.17.67,0,0,.14-.12.06-.45-.03-.13-.12-.23-.24-.29-.61-.35-2.04-.13-2.99.07h0Zm1.51-2.3c-.12,0-.23.02-.34.07-.66.43-1.17,1.06-1.44,1.8,1.24-.47,2.44-1.13,2.46-1.5,0-.12-.18-.23-.3-.28-.12-.06-.25-.09-.38-.09h0Z"/>
      <path class="cls-3" d="m284.56,156.8l1.22,1.14,18.1-12.28-2.32-5.58c.03,1.97-.25,3.93-.85,5.8-1.01,2.33-13,9.14-16.15,10.92Z"/>
      <path class="cls-6" d="m255.15,150.74l3.59,10.94c9.89,2.35,16.29,3.11,20.41,3.08-.6-2.91-1.11-5.33-1.51-7.18-.58-2.69-.9-4.19-.9-4.19l-21.59-2.65Z"/>
      <path class="cls-14" d="m303.83,145.67l-18.11,12.28-1.16-1.14-4.11-3.88v9.71l-25-4.48c-3.79-16.78-3.31-29.21-1.67-37.75.76-4.3,2.12-8.47,4.05-12.39h0l.32-3.17,33.82,3.51.33,2.21,1.63,10.93,7.61,18.6,2.29,5.57Z"/>
      <path class="cls-6" d="m280.4,152.93v-10.8s4.83,8.08,4.11,14.67l-4.11-3.87Z"/>
      <polygon class="cls-14" points="283.69 156.8 303.01 142.78 304.65 145.47 285.2 159.09 283.69 156.8"/>
      <polygon class="cls-3" points="283.69 156.8 303.01 142.78 304.65 145.47 285.2 159.09 283.69 156.8"/>
      <polygon class="cls-14" points="254.35 155.96 280.91 160.65 280.91 163.26 255.15 159.09 254.35 155.96"/>
      <polygon class="cls-3" points="254.35 155.96 280.91 160.65 280.91 163.26 255.15 159.09 254.35 155.96"/>
      <path class="cls-6" d="m264.96,108.94s-2.49,9.16-11.22,11.47c.76-4.3,2.12-8.47,4.05-12.39h0l7.17.92Z"/>
      <path class="cls-6" d="m293.93,121.48c-3.23-3.12-4.16-10.93-4.16-10.93h2.53l1.63,10.93Z"/>
      <path class="cls-6" d="m281.45,110c0,.59-.48,1.06-1.06,1.06-.58,0-1.06-.47-1.06-1.06,0-.59.48-1.06,1.06-1.06.58,0,1.06.47,1.06,1.06Z"/>
      <path class="cls-13" d="m258.5,106.04c-7.82-1.78-.1-1.67-2.64-37-.16-1.79-.02-3.59.42-5.33.83-2.84,3.6-4.67,6.54-4.32,1.36.15,2.57.29,2.84.3.73,0,1.48.05,2.23.1,5.1.21,10.17.78,15.19,1.72,1.24.25,2.51.55,3.75.84.4.1,5,.81,5.36.91,0,0,5.26,8.17,4.78,14.09-.27,3.3-1.39,5.73-1.48,13.65-.2,18,3.56,17.45-4.25,18l-32.74-2.96Z"/>
      <path class="cls-3" d="m295.49,90.98c-.2,18,3.56,17.46-4.25,18l-32.74-2.91c-6.44-1.45-2.34-1.64-2.12-21.44,0-3.4,0-7.37-.28-12-.07-1.14-.15-2.33-.24-3.55-.17-1.78-.02-3.58.42-5.32.83-2.85,3.59-4.68,6.54-4.33,1.36.15,2.57.29,2.84.29.72,0,1.48.06,2.23.11,5.1.21,10.17.79,15.19,1.71,1.24.27,2.5.55,3.76.85.4.1,5,.81,5.35.92,0,0,5.26,8.16,4.79,14.07-.28,3.25-1.42,5.68-1.49,13.6Z"/>
      <path class="cls-18" d="m275.03,84.13s-6.94,7.53-18.65.46c0-3.4,0-7.37-.28-12,4.53-1.62,9.23-2.74,14-3.34l4.93,14.88Z"/>
      <path class="cls-4" d="m290.03,68.36l7.29-4.15,2.57,6.87s-4.69,3.62-8.87,1.1l-.99-3.82Z"/>
      <polygon class="cls-4" points="303.29 64.05 303.97 69.63 299.89 71.1 297.32 64.23 303.29 64.05"/>
      <path class="cls-17" d="m265.98,64.83c1.94,7.74,5,15.15,9.09,22l.21.35c-.21-.31-.48-.59-.8-.8-.73-.54-1.67-.71-2.54-.45,3.14-1.65,5.62-4.61,8.24-7.14,3.11-3.23,6.23-6.61,9.3-10,.93-.97,2.47-1,3.44-.07.79.76.98,1.95.45,2.91-3.47,6.21-7.56,12.04-12.22,17.42-1.65,1.98-3.66,3.62-5.94,4.83-2.69,1.32-5.95.36-7.49-2.21-5.49-7.5-9.35-16.07-11.31-25.15-1-6.43,8.23-8.14,9.57-1.76v.07Z"/>
      <path class="cls-13" d="m262.04,59.36c-5.3-.63-8.54,5.54-6.87,19.71h16.57s-.98-18.71-9.7-19.71Z"/>
      <path class="cls-3" d="m262.04,59.36c-5.3-.63-8.54,5.54-6.87,19.71h16.57s-.98-18.71-9.7-19.71Z"/>
      <polygon class="cls-13" points="254.33 75.81 272.3 77.95 272.36 80.37 254.73 80.37 254.33 75.81"/>
      <polygon class="cls-1" points="254.33 75.81 272.3 77.95 272.36 80.37 254.73 80.37 254.33 75.81"/>
      <path class="cls-2" d="m275.45,18.92s3.81-2.75,10.25-.64,13.13,9.05,10.18,19-2.58,16.3-2.58,16.3c0,0-22.14-3.67-26.87-8s-3.98-29.22,9.02-26.66Z"/>
      <path class="cls-4" d="m270.88,42.78c.77,5,1.39,14.18-2.16,17.09,4.48,2.6,9.11,4.93,13.86,7,3.31-3.76,1.34-5.3,1.34-5.3-5.4-1.93-5.11-6-4-9.71l-9.04-9.08Z"/>
      <path class="cls-6" d="m274.56,46.49l5.34,5.37c-.27.87-.46,1.77-.57,2.67-2.07-.54-4.84-3.17-5-5.39-.09-.89,0-1.79.23-2.65Z"/>
      <path class="cls-4" d="m271.96,29.97c-1.6,7.92-2.45,11.24.32,16.47,4.16,7.88,14,8.59,17.86,1.43,3.49-6.45,5.53-18.33-1.07-23.84-4.27-3.81-10.81-3.45-14.63.82-1.29,1.44-2.15,3.22-2.48,5.12Z"/>
      <path class="cls-13" d="m280.86,35.02c-.16.66,0,1.3.45,1.43s.88-.29,1-1,0-1.3-.45-1.44-.83.35-1,1.01Z"/>
      <path class="cls-13" d="m288.94,37.36c-.16.66,0,1.3.45,1.44s.87-.3,1-1,0-1.3-.45-1.43-.84.32-1,.99Z"/>
      <path class="cls-13" d="m289.79,36.36h1.62s-1.08,1-1.62,0Z"/>
      <path class="cls-10" d="m286.14,38.01c.19,1.69.59,3.35,1.2,4.93-.78.28-1.65.17-2.35-.28l1.15-4.65Z"/>
      <path class="cls-2" d="m280.77,43.93c.32.17.66.31,1,.43.09.03.19,0,.22-.1,0-.01,0-.02,0-.03.03-.1-.03-.22-.13-.25-1.63-.52-2.94-1.75-3.56-3.35-.02-.1-.12-.17-.23-.14,0,0,0,0-.01,0-.1.04-.15.15-.12.25.51,1.38,1.52,2.51,2.82,3.19Z"/>
      <path class="cls-13" d="m280.71,30.51c.09.05.21.05.3,0,.87-.45,1.9-.43,2.75.05.16.11.39.07.5-.09,0,0,.01-.02.02-.03.11-.19.05-.44-.14-.56-1.07-.63-2.38-.67-3.48-.11-.19.11-.26.35-.16.54.04.09.12.16.21.2Z"/>
      <path class="cls-13" d="m293.3,34.07c.09.04.19.04.28,0,.2-.06.32-.27.26-.47,0,0,0-.01,0-.02-.3-1.26-1.17-2.3-2.36-2.82-.19-.07-.39.03-.46.22,0,.01,0,.02,0,.03-.06.21.05.43.26.51.93.43,1.6,1.27,1.84,2.26.02.12.09.23.2.29Z"/>
      <path class="cls-13" d="m281.71,34.04h1.63s-1.09,1.02-1.63,0Z"/>
      <path class="cls-2" d="m273.8,35.8s5.84-3.58,6.55-12.42c0,0,9.74-.31,13.16,8.32,0,0-1.22-12.41-15.12-12.93s-10.07,14.76-9,16.35,4.41.68,4.41.68Z"/>
      <path class="cls-4" d="m267.75,35.56c.39,1.66,1.42,3.1,2.87,4,1.89,1.12,3.36-.64,3.27-2.89-.07-2-1.14-5.06-3.25-5.25s-3.39,2.02-2.89,4.14Z"/>
    </g>
    <g>
      <path class="cls-9" d="m132.29,41.82c.48.48.71,1.19.71,2.14v3.7h-1.87v-3.41c0-.51-.11-.89-.32-1.15-.21-.25-.51-.38-.91-.38-.44,0-.79.14-1.04.43-.26.28-.38.71-.38,1.27v3.24h-1.87v-3.41c0-1.02-.41-1.52-1.22-1.52-.43,0-.78.14-1.03.43-.26.28-.38.71-.38,1.27v3.24h-1.87v-6.46h1.79v.74c.24-.27.53-.48.88-.62.35-.14.73-.22,1.15-.22.46,0,.87.09,1.24.27.37.18.66.44.89.79.26-.34.6-.6,1-.78.4-.18.85-.28,1.33-.28.81,0,1.45.24,1.93.71Z"/>
      <path class="cls-9" d="m139.59,41.82c.54.48.8,1.19.8,2.15v3.68h-1.75v-.8c-.35.6-1.01.9-1.97.9-.5,0-.93-.08-1.29-.25-.36-.17-.64-.4-.83-.7s-.29-.63-.29-1.01c0-.6.23-1.07.68-1.42.45-.34,1.15-.52,2.09-.52h1.49c0-.41-.12-.72-.37-.94s-.62-.33-1.12-.33c-.34,0-.68.05-1.01.16-.33.11-.61.25-.85.44l-.67-1.31c.35-.25.77-.44,1.27-.58.49-.14,1-.2,1.52-.2,1,0,1.77.24,2.3.71Zm-1.6,4.45c.25-.15.42-.37.53-.65v-.66h-1.28c-.77,0-1.15.25-1.15.76,0,.24.09.43.28.57.19.14.45.21.77.21s.6-.07.85-.22Z"/>
      <path class="cls-9" d="m146.25,47.35c-.18.14-.41.24-.68.31s-.55.1-.85.1c-.77,0-1.36-.2-1.78-.59-.42-.39-.63-.97-.63-1.73v-2.65h-1v-1.44h1v-1.57h1.87v1.57h1.61v1.44h-1.61v2.63c0,.27.07.48.21.63.14.15.34.22.59.22.3,0,.55-.08.76-.24l.5,1.32Z"/>
      <path class="cls-9" d="m150,41.35c.38-.16.82-.24,1.31-.24v1.73c-.21-.02-.35-.02-.42-.02-.54,0-.96.15-1.26.45-.3.3-.46.75-.46,1.35v3.05h-1.87v-6.46h1.79v.85c.22-.31.53-.55.91-.71Z"/>
      <path class="cls-9" d="m152.53,40.01c-.22-.2-.32-.45-.32-.74s.11-.54.32-.74c.22-.2.5-.3.84-.3s.62.1.84.29c.22.19.32.43.32.72,0,.31-.11.57-.32.77-.22.2-.5.31-.84.31s-.62-.1-.84-.3Zm-.1,1.2h1.87v6.46h-1.87v-6.46Z"/>
      <path class="cls-9" d="m157.31,47.33c-.55-.28-.98-.68-1.28-1.18-.31-.5-.46-1.08-.46-1.72s.15-1.21.46-1.72c.31-.5.74-.9,1.28-1.18.55-.28,1.17-.43,1.85-.43s1.27.14,1.78.43c.51.28.88.69,1.11,1.22l-1.45.78c-.34-.59-.82-.89-1.45-.89-.49,0-.89.16-1.21.48-.32.32-.48.76-.48,1.31s.16.99.48,1.31c.32.32.72.48,1.21.48.64,0,1.12-.3,1.45-.89l1.45.79c-.23.51-.6.91-1.11,1.2-.51.29-1.1.43-1.78.43s-1.31-.14-1.85-.43Z"/>
      <path class="cls-9" d="m169.64,41.21v6.46h-1.78v-.77c-.25.28-.54.49-.89.64-.34.15-.72.22-1.12.22-.85,0-1.52-.24-2.02-.73-.5-.49-.74-1.21-.74-2.17v-3.65h1.87v3.37c0,1.04.44,1.56,1.31,1.56.45,0,.81-.15,1.08-.44s.41-.73.41-1.3v-3.19h1.87Z"/>
      <path class="cls-9" d="m171.38,38.76h1.87v8.9h-1.87v-8.9Z"/>
      <path class="cls-9" d="m179.9,41.82c.54.48.8,1.19.8,2.15v3.68h-1.75v-.8c-.35.6-1.01.9-1.97.9-.5,0-.93-.08-1.29-.25-.36-.17-.64-.4-.83-.7s-.29-.63-.29-1.01c0-.6.23-1.07.68-1.42.45-.34,1.15-.52,2.09-.52h1.49c0-.41-.12-.72-.37-.94s-.62-.33-1.12-.33c-.34,0-.68.05-1.01.16-.33.11-.61.25-.85.44l-.67-1.31c.35-.25.77-.44,1.27-.58.49-.14,1-.2,1.52-.2,1,0,1.77.24,2.3.71Zm-1.6,4.45c.25-.15.42-.37.53-.65v-.66h-1.28c-.77,0-1.15.25-1.15.76,0,.24.09.43.28.57.19.14.45.21.77.21s.6-.07.85-.22Z"/>
      <path class="cls-9" d="m185.09,41.35c.38-.16.82-.24,1.31-.24v1.73c-.21-.02-.35-.02-.42-.02-.54,0-.96.15-1.26.45-.3.3-.46.75-.46,1.35v3.05h-1.87v-6.46h1.79v.85c.22-.31.53-.55.91-.71Z"/>
    </g>
    <g>
      <path class="cls-9" d="m212.66,227.03c.49.28.88.67,1.16,1.16.28.5.42,1.08.42,1.75s-.14,1.25-.42,1.75-.67.89-1.16,1.16c-.49.28-1.04.41-1.64.41-.82,0-1.47-.26-1.94-.78v3.01h-1.87v-8.78h1.79v.74c.46-.56,1.14-.84,2.03-.84.6,0,1.15.14,1.64.41Zm-.78,4.21c.31-.32.46-.76.46-1.3s-.15-.98-.46-1.3c-.31-.32-.7-.49-1.18-.49s-.87.16-1.18.49c-.31.32-.46.76-.46,1.3s.15.98.46,1.3c.31.32.7.49,1.18.49s.87-.16,1.18-.49Z"/>
      <path class="cls-9" d="m220.29,227.33c.54.48.8,1.19.8,2.15v3.68h-1.75v-.8c-.35.6-1.01.9-1.97.9-.5,0-.93-.08-1.29-.25s-.64-.4-.83-.7c-.19-.3-.29-.63-.29-1.01,0-.6.23-1.07.68-1.42.45-.34,1.15-.52,2.09-.52h1.49c0-.41-.12-.72-.37-.94-.25-.22-.62-.33-1.12-.33-.34,0-.68.05-1.01.16-.33.11-.61.25-.85.44l-.67-1.31c.35-.25.77-.44,1.27-.58.49-.14,1-.2,1.52-.2,1,0,1.77.24,2.3.71Zm-1.6,4.45c.25-.15.42-.37.53-.65v-.66h-1.28c-.77,0-1.15.25-1.15.76,0,.24.09.43.28.57.19.14.45.21.77.21s.6-.07.85-.22Z"/>
      <path class="cls-9" d="m229.52,226.71v5.38c0,1.18-.31,2.06-.92,2.64-.62.58-1.52.86-2.7.86-.62,0-1.22-.08-1.78-.23-.56-.15-1.02-.37-1.39-.66l.74-1.34c.27.22.62.4,1.03.53s.83.2,1.25.2c.65,0,1.13-.15,1.43-.44.31-.29.46-.73.46-1.33v-.28c-.49.54-1.17.8-2.04.8-.59,0-1.13-.13-1.63-.39s-.88-.63-1.17-1.1c-.29-.47-.43-1.02-.43-1.63s.14-1.16.43-1.63c.29-.47.68-.84,1.17-1.1s1.03-.39,1.63-.39c.94,0,1.65.31,2.14.92v-.83h1.78Zm-2.32,4.17c.32-.29.47-.67.47-1.15s-.16-.85-.47-1.15-.72-.44-1.22-.44-.9.15-1.22.44c-.32.29-.48.67-.48,1.15s.16.85.48,1.15c.32.29.73.44,1.22.44s.9-.15,1.22-.44Z"/>
      <path class="cls-9" d="m236.17,227.33c.54.48.8,1.19.8,2.15v3.68h-1.75v-.8c-.35.6-1.01.9-1.97.9-.5,0-.93-.08-1.29-.25s-.64-.4-.83-.7c-.19-.3-.29-.63-.29-1.01,0-.6.23-1.07.68-1.42.45-.34,1.15-.52,2.09-.52h1.49c0-.41-.12-.72-.37-.94-.25-.22-.62-.33-1.12-.33-.34,0-.68.05-1.01.16-.33.11-.61.25-.85.44l-.67-1.31c.35-.25.77-.44,1.27-.58.49-.14,1-.2,1.52-.2,1,0,1.77.24,2.3.71Zm-1.6,4.45c.25-.15.42-.37.53-.65v-.66h-1.28c-.77,0-1.15.25-1.15.76,0,.24.09.43.28.57.19.14.45.21.77.21s.6-.07.85-.22Z"/>
      <path class="cls-9" d="m241.36,226.86c.38-.16.82-.24,1.31-.24v1.73c-.21-.02-.35-.02-.42-.02-.54,0-.96.15-1.26.45-.3.3-.46.75-.46,1.35v3.05h-1.87v-6.46h1.79v.85c.22-.31.53-.55.91-.71Z"/>
    </g>
  </g>
</svg>